<svg xmlns="http://www.w3.org/2000/svg" width="186.852" height="210.458" viewBox="0 0 186.852 210.458"><defs><style>.a{fill:#fff;}</style></defs><g transform="translate(0 0)"><path class="a" d="M-307.434,76.316c0-7.194-.036-14.389.028-21.582.014-1.634-.428-2.07-2.125-1.91a90.851,90.851,0,0,0-16.17,2.822c-1.347.379-1.859-.027-2.079-1.257-.081-.453-.261-.888-.385-1.334-1.236-4.436-1.258-4.549,3.39-5.433,39.652-7.536,72.133,4.53,96.953,36.278,9.84,12.586,15.344,27.285,17,43.228,3.378,32.593-6.866,60.2-31.214,82.194-13.032,11.774-28.565,18.78-45.924,21.563-24.921,4-48.029-.845-68.813-15.185-21.337-14.723-34.02-35.282-38.7-60.683a91.659,91.659,0,0,1,6.358-54.179c.746-1.718,1.368-2.121,3.133-1.23,4.488,2.263,4.536,2.179,2.629,6.92a91.419,91.419,0,0,0-6.217,26.024c-.185,2.042.306,2.8,2.55,2.747,6.417-.162,12.841-.1,19.26-.023,1.544.02,2.356-.324,2.167-2-.147-1.308.443-1.81,1.759-1.654a25.014,25.014,0,0,0,3.7.2c1.5-.045,2.382.352,2.1,2.072-.2,1.215.55,1.359,1.537,1.358q23.671-.025,47.343.012c1.292,0,1.752-.369,1.743-1.7-.054-8.045-.087-16.091,0-24.135.02-1.834-.914-1.964-2.286-2a117.313,117.313,0,0,1-25.387-3.719c-1.568-.389-2.136-.794-1.609-2.587,1.482-5.047,1.379-5.058,6.4-3.951a136.928,136.928,0,0,0,20.395,2.857c1.887.126,2.534-.386,2.5-2.363C-307.5,90.55-307.434,83.432-307.434,76.316Zm33.333,58.907c7.81,0,15.62-.055,23.428.041,1.855.023,2.5-.349,2.425-2.381a128.135,128.135,0,0,0-5.932-33.632c-.576-1.86-1.176-2.159-2.995-1.4a120.407,120.407,0,0,1-41.273,9.522c-1.514.069-1.525.78-1.522,1.89.021,7.964.065,15.929-.045,23.892-.025,1.836.6,2.125,2.255,2.107C-289.874,135.178-281.987,135.226-274.1,135.223Zm-.174,7.452c-7.889,0-15.779.045-23.667-.037-1.619-.017-2.084.411-2.066,2.051.086,7.811.107,15.625-.013,23.434-.027,1.828.645,2.174,2.231,2.22a106.831,106.831,0,0,1,14.063,1.387,122.35,122.35,0,0,1,25.8,7.218c1.1.442,1.717.555,2.234-.843a126.343,126.343,0,0,0,7.312-33.362c.138-1.615-.338-2.115-1.989-2.1C-258.34,142.724-266.307,142.681-274.274,142.675Zm-58.5,0c-7.8,0-15.608.011-23.412-.013-1.115,0-1.893-.016-1.767,1.549a127.879,127.879,0,0,0,7.429,34.24c.45,1.217,1.048,1.159,2.032.766a118.3,118.3,0,0,1,38.842-8.7c1.818-.08,2.283-.773,2.262-2.527q-.142-11.7-.015-23.41c.014-1.541-.454-1.951-1.959-1.938C-317.17,142.712-324.974,142.675-332.778,142.675Zm32.822-66.468h-.013c0,7.188.068,14.376-.046,21.562-.03,1.874.526,2.356,2.33,2.228a121.633,121.633,0,0,0,38.719-9.368c1.124-.472,1.274-.959.8-2.056a132.243,132.243,0,0,0-18.3-30.739,5.624,5.624,0,0,0-3.024-1.95,102.107,102.107,0,0,0-18.439-3.2c-1.664-.149-2.077.325-2.057,1.957C-299.908,61.832-299.956,69.02-299.956,76.207Zm-.012,125.21c0,7.185.03,14.371-.025,21.556-.011,1.409.217,2.09,1.87,1.97a86.019,86.019,0,0,0,16.183-2.636,3.67,3.67,0,0,0,2.009-1.442,172.357,172.357,0,0,0,20-32.455c.675-1.444.567-2.012-1.021-2.626a117.352,117.352,0,0,0-37.133-8.037c-1.641-.076-1.92.423-1.909,1.881C-299.938,186.891-299.969,194.155-299.968,201.418Zm-7.464-.109c0-7.112-.052-14.225.037-21.336.022-1.73-.409-2.229-2.207-2.133a116.736,116.736,0,0,0-35.742,8.046c-1.587.609-1.656,1.293-.99,2.714a172.405,172.405,0,0,0,20.042,32.455,3.539,3.539,0,0,0,1.989,1.477,97.246,97.246,0,0,0,14.836,2.388c1.674.134,2.084-.442,2.067-2.043C-307.475,215.688-307.432,208.5-307.432,201.308Zm-70-58.632v.01c-3.4,0-6.8.091-10.194-.038-1.705-.065-2.164.563-1.951,2.121.208,1.527.271,3.073.455,4.6a84.662,84.662,0,0,0,16.042,40.371c.839,1.15,1.408,1.225,2.571.477a94.757,94.757,0,0,1,11.76-6.435c1.65-.757,1.851-1.5,1.237-3.129a123.659,123.659,0,0,1-7.829-36.477c-.074-1.256-.521-1.543-1.664-1.525C-370.481,142.711-373.957,142.676-377.433,142.676Zm148.454,0v.014c-3.481,0-6.963.044-10.442-.024-1.2-.024-1.54.361-1.621,1.563a128.939,128.939,0,0,1-7.906,36.763c-.49,1.309-.277,1.91.951,2.5a86.9,86.9,0,0,1,11.816,6.85c.926.644,1.4.489,2.032-.371a86.39,86.39,0,0,0,16.84-45.67c.109-1.414-.442-1.677-1.693-1.652C-222.326,142.72-225.653,142.675-228.979,142.675Zm-.133-7.435c3.325,0,6.653-.084,9.973.036,1.631.059,2-.551,1.783-2.013-.481-3.283-.747-6.6-1.354-9.861a88.326,88.326,0,0,0-15.373-35.626c-.706-.985-1.187-1.239-2.359-.528-3.363,2.04-6.816,3.94-10.29,5.786-1.124.6-1.316,1.136-.887,2.34.929,2.61,1.711,5.28,2.429,7.959a119.919,119.919,0,0,1,4.3,29.478c.025,1.838.509,2.59,2.5,2.476C-235.305,135.111-232.205,135.241-229.112,135.241ZM-338.73,217.4c.076-.232.13-.313.109-.344a178.8,178.8,0,0,1-14.756-26.121c-.493-1.112-1.1-1.019-1.979-.528-3.434,1.905-6.869,3.809-10.345,5.637-1.339.7-1.1,1.251-.2,2.174A91.821,91.821,0,0,0-356.075,207,83.245,83.245,0,0,0-338.73,217.4Zm71.454-.675A83.458,83.458,0,0,0-240.737,197.8c.775-.807.567-1.176-.272-1.717-3.31-2.132-6.738-4.048-10.218-5.887-.936-.494-1.324-.281-1.711.6A197.344,197.344,0,0,1-267.276,216.723Zm3.853-154.1a162.734,162.734,0,0,1,11.888,22.52c.356.841.591,1.8,1.937,1,2.849-1.685,5.76-3.266,8.659-4.866.833-.46.842-.876.2-1.559A79.955,79.955,0,0,0-263.424,62.623Z" transform="translate(397.049 -21.774)"/><path class="a" d="M-323.948,33.615c-.368,20.4-7.176,40.628-17.443,59.868-1.161,2.177-2.172,4.434-3.335,6.609a6.909,6.909,0,0,1-6.141,3.93,6.491,6.491,0,0,1-6.05-3.674c-7.186-14.082-14.519-28.109-18.021-43.721a127.052,127.052,0,0,1-3.39-29.847c.164-10.516,7.957-20.742,18.309-24.586a26.4,26.4,0,0,1,28.586,7.088C-325.475,15.74-323.159,22.654-323.948,33.615ZM-350.9,95.606c4.762-9.636,9.679-18.571,12.968-28.256a120.26,120.26,0,0,0,6.539-39.309c-.025-9.424-5.6-17.338-14.623-19.4-9.97-2.274-19.286,2.149-23.145,10.868-1.622,3.664-1.667,7.5-1.567,11.345a117.866,117.866,0,0,0,8.067,39.954C-359.386,79.229-355.055,87.128-350.9,95.606Z" transform="translate(388.213 -0.584)"/><path class="a" d="M-341.02,61.691c-8.577.131-16.365-7.479-16.48-16.1-.114-8.5,7.437-16.332,15.878-16.462,8.543-.132,16.617,7.414,16.721,15.627C-324.786,53.769-332.2,61.556-341.02,61.691ZM-350,45.419c0,5.388,3.434,8.813,8.825,8.812,5.339,0,8.867-3.521,8.858-8.836-.009-5.3-3.57-8.842-8.884-8.841S-350.008,40.055-350,45.419Z" transform="translate(378.369 -14.064)"/></g></svg>