<svg xmlns="http://www.w3.org/2000/svg" width="111.037" height="102.739" viewBox="0 0 111.037 102.739"><defs><style>.a{fill:#3e729a;}</style></defs><g transform="translate(680)"><g transform="translate(-680)"><path class="a" d="M-744.695,124.89a6.446,6.446,0,0,1-3.748,5.837,5.743,5.743,0,0,1-6.473-1.274q-19.232-19.237-38.454-38.483c-1.261-1.262-2.557-2.49-3.781-3.786a2.318,2.318,0,0,0-1.967-.766,23,23,0,0,1-15.737-5.14c-3.135-2.486-5.154-5.787-6.951-9.289C-827.2,61.477-832.655,51-838.078,40.5c-.3-.589-1.019-1.287.272-1.663.146-.043.218-.365.311-.565a4.346,4.346,0,0,1,7.06-1.216c3.544,3.5,7.051,7.034,10.578,10.549q8.843,8.814,17.689,17.625c5.512,5.513,10.991,11.058,16.5,16.57,4.882,4.883,9.8,9.731,14.681,14.613,4.752,4.75,9.473,9.532,14.222,14.285q5.117,5.121,10.271,10.2A5.9,5.9,0,0,1-744.695,124.89Zm-3.717.529a1.645,1.645,0,0,0-.615-1.506q-5.712-5.713-11.424-11.425-17.5-17.505-35-35.011Q-811.57,61.354-827.7,45.235q-2.681-2.68-5.366-5.357c-.2-.2-.414-.522-.746-.264-.312.242-.1.536.031.8.065.133.135.264.2.4q8.145,15.739,16.292,31.476a18.272,18.272,0,0,0,19.706,10.052,1.689,1.689,0,0,1,1.591.548c1.323,1.357,2.678,2.683,4.018,4.024l39.816,39.816c.5.5,1.029,1.134,1.812.716A3.746,3.746,0,0,0-748.412,125.419Z" transform="translate(838.551 -30.309)"/><path class="a" d="M-624.44,69.6a14.811,14.811,0,0,1-6.078-1.187,1.145,1.145,0,0,0-1.48.3c-.947,1-1.953,1.937-2.905,2.929-.431.449-.743.422-1.206.014-2.267-2-2.277-1.986-.129-4.134,1.1-1.1,2.25-2.17,3.3-3.325a1.382,1.382,0,0,1,2.081-.27,12.136,12.136,0,0,0,12.517.518,11.942,11.942,0,0,0,2.93-2.2q12.31-12.212,24.622-24.422.277-.275.542-.561a.732.732,0,0,0,0-1.093.753.753,0,0,0-1.174-.079c-.283.24-.543.507-.806.77-4.94,4.943-9.894,9.872-14.8,14.845-.745.754-1.193.827-1.936,0-1.563-1.741-3.2-3.417-4.872-5.057-.684-.671-.582-1.081.05-1.708q7.523-7.459,14.993-14.971a10.708,10.708,0,0,0,.758-.816.672.672,0,0,0-.123-.988c-.286-.292-.619-.466-.99-.222a5.562,5.562,0,0,0-.829.739c-5,4.992-10,9.973-14.969,14.995-.707.715-1.137.783-1.855.021-1.579-1.677-3.226-3.293-4.9-4.88-.669-.635-.662-1.041,0-1.7q7.529-7.453,15-14.967c.236-.237.468-.478.7-.717a.679.679,0,0,0,.03-1.07.766.766,0,0,0-1.173-.128c-.256.214-.49.454-.727.691Q-619.939,32.983-632,45.047c-4.353,4.356-5.212,9.629-2.421,15.077a1.383,1.383,0,0,1-.3,1.934c-1.592,1.507-3.138,3.065-4.655,4.649-.59.617-.988.682-1.622.034-1.936-1.979-2.065-2.078.029-3.876,1.792-1.538,2.2-2.957,1.644-5.392a15.253,15.253,0,0,1,4.1-14.613C-626.94,34.379-618.5,26.052-610.1,17.68a5.023,5.023,0,0,1,6.779-.148,5.007,5.007,0,0,1-.185,6.859c-4.245,4.271-8.514,8.518-12.766,12.782-.333.334-.926.6-.322,1.248.472.5.816.648,1.351.076.965-1.03,1.99-2,2.989-3,3.26-3.259,6.529-6.508,9.772-9.783a4.923,4.923,0,0,1,3.237-1.561,4.239,4.239,0,0,1,4.32,1.956,4.916,4.916,0,0,1-.166,5.473,7.791,7.791,0,0,1-1.038,1.161q-6.183,6.2-12.373,12.386c-.345.345-.863.624-.272,1.261.563.606.9.614,1.5,0,4.175-4.236,8.408-8.414,12.588-12.644a5.113,5.113,0,0,1,4.668-1.544c3.468.54,4.927,4.825,2.626,7.651a14.737,14.737,0,0,1-1.081,1.125Q-600.388,52.8-612.305,64.614A16.6,16.6,0,0,1-624.44,69.6Z" transform="translate(697.317 -16.287)"/><path class="a" d="M-801.183,275.666a5.414,5.414,0,0,1-4.781-3.378c-.869-2-.27-3.86,1-5.519a14.588,14.588,0,0,1,1.324-1.354l28.935-28.936c1.132-1.131,1.136-1.134,2.232-.035,1.824,1.83,1.889,1.391.013,3.268q-14.659,14.671-29.337,29.322a1.648,1.648,0,0,0-.538,1.981,1.389,1.389,0,0,0,1.489.753c.6-.014.895-.487,1.254-.846q14.355-14.344,28.705-28.693c1.867-1.864,1.313-1.774,3.174.006,1.153,1.1,1.14,1.12.009,2.251q-14.546,14.547-29.085,29.1A6.915,6.915,0,0,1-801.183,275.666Z" transform="translate(815.37 -174.294)"/><path class="a" d="M-723.914,37.846a48.276,48.276,0,0,1,19.258,3.988c.9.391,1.088.742.631,1.64-1.174,2.307-1.124,2.3-3.549,1.33a44.53,44.53,0,0,0-12.942-3.05,43.586,43.586,0,0,0-30.549,9.024c-.934.7-1.354.568-2.006-.315-1.469-1.988-1.537-1.977.483-3.418a48.431,48.431,0,0,1,24.228-9C-726.877,37.916-725.4,37.854-723.914,37.846Z" transform="translate(777.745 -31.818)"/><path class="a" d="M-714.09,356.315a49.224,49.224,0,0,1-25.48-7.245c-.768-.471-.813-.847-.356-1.567,1.408-2.217,1.389-2.241,3.663-.955a44.487,44.487,0,0,0,20.754,5.931,44.012,44.012,0,0,0,20.882-4.493c.334-.162.676-.308,1.008-.474a.664.664,0,0,1,1.015.315c.034.066.075.129.107.2,1.469,3.088,1.906,2.318-1.217,3.8a45.66,45.66,0,0,1-17.044,4.314C-711.868,356.2-712.974,356.343-714.09,356.315Z" transform="translate(767.714 -253.58)"/><path class="a" d="M-819.8,162.927a51.388,51.388,0,0,1,3.456-18.531c.282-.713.6-.884,1.329-.586,2.629,1.071,2.577,1.028,1.666,3.676a43.556,43.556,0,0,0,2.416,35.389,38.191,38.191,0,0,0,3.386,5.494c.516.689.573,1.138-.21,1.719-2.168,1.611-2.176,1.67-3.692-.577a47.338,47.338,0,0,1-7.964-21.851C-819.6,165.854-819.712,164.038-819.8,162.927Z" transform="translate(825.044 -108.052)"/><path class="a" d="M-508.35,170.545a49.243,49.243,0,0,1-10.026,29.949c-.842,1.109-.839,1.111-1.962.231-1.886-1.479-1.872-1.469-.435-3.438a44.19,44.19,0,0,0,8.334-21.1,43.308,43.308,0,0,0-1.8-18.464c-.324-1.018-.019-1.352.906-1.645,2.408-.763,2.425-.809,3.115,1.614a41.834,41.834,0,0,1,1.764,11.285C-508.452,169.609-508.372,170.238-508.35,170.545Z" transform="translate(610.374 -116.658)"/><path class="a" d="M-702.332,80.879a37.965,37.965,0,0,1,8.818,1.1c.829.2.98.544.782,1.33-.656,2.607-.621,2.553-3.166,2.088-9.039-1.651-17.431-.105-24.993,5.258-.815.578-1.251.572-1.862-.272-1.571-2.17-1.629-2.166.63-3.612A36.747,36.747,0,0,1-702.332,80.879Z" transform="translate(755.945 -62.818)"/><path class="a" d="M-690.8,321.033a36.262,36.262,0,0,1-16.82-3.829c-.893-.436-.99-.849-.518-1.7,1.194-2.155,1.169-2.207,3.416-1.188a32.3,32.3,0,0,0,14.592,2.98,30.948,30.948,0,0,0,10.524-2.152c.924-.369,1.381-.234,1.754.744.943,2.473.987,2.458-1.522,3.289A33.477,33.477,0,0,1-690.8,321.033Z" transform="translate(744.805 -230.518)"/><path class="a" d="M-544.817,198.309a36.108,36.108,0,0,1-7.116,21.521c-.628.867-1.07.943-1.9.256-2.364-1.953-2.026-1.325-.512-3.539a31.467,31.467,0,0,0,5.637-16.088c.122-1.976-.023-3.932-.092-5.894-.023-.674.123-.995.808-.988a1.317,1.317,0,0,0,.222-.021c2.877-.456,2.881-.456,2.951,2.523C-544.8,196.822-544.817,197.566-544.817,198.309Z" transform="translate(634.678 -143.83)"/><path class="a" d="M-776.386,206.5c.079-.86-.151-1.7-.013-2.564.086-.543.3-.805.835-.825.111,0,.222-.015.334-.021,2.575-.155,2.536-.154,2.613,2.414a32.408,32.408,0,0,0,5.037,16.97c1.105,1.715,1.039,1.4-.44,2.466-1.743,1.255-1.767,1.267-2.9-.554A35.807,35.807,0,0,1-776.386,206.5Z" transform="translate(793.81 -150.813)"/></g></g></svg>