<svg xmlns="http://www.w3.org/2000/svg" width="113.017" height="88.829" viewBox="0 0 113.017 88.829"><defs><style>.a{fill:#3e729a;}</style></defs><g transform="translate(0 0)"><path class="a" d="M-418.467,88.829c-1.8-1.164-1.968-1.963-.748-3.726q8.7-12.565,17.4-25.125c1.214-1.752,2.3-1.844,3.8-.341,1.729,1.726,3.493,3.419,5.166,5.2.7.743,1.03.644,1.605-.127q10.648-14.266,21.35-28.493c.183-.244.361-.493.548-.734,1.113-1.438,2.224-1.51,3.537-.207,1.733,1.722,3.448,3.462,5.18,5.185,1.24,1.233.973,1.168,2-.031q16.774-19.557,33.54-39.121c1.488-1.736,2.474-1.743,3.991-.011q6.6,7.535,13.2,15.079a2.362,2.362,0,0,1,.876,2.015,1.933,1.933,0,0,1-1.333,1.584,1.913,1.913,0,0,1-2.155-.667q-1.961-2.24-3.926-4.477c-.268-.3-.517-.764-.847.02a1.808,1.808,0,0,1-2.263,1.081,1.752,1.752,0,0,1-1.422-1.722,1.922,1.922,0,0,1,1.41-1.994c.168-.064.338-.123.632-.231-1.97-2.253-3.877-4.429-5.777-6.612-.265-.3-.488-.3-.744,0-.708.84-1.421,1.675-2.254,2.654a2.615,2.615,0,0,1,2.144.872,1.9,1.9,0,0,1,.353,1.294A1.94,1.94,0,0,1-324.946,12c-1.027.092-1.776-.589-2.228-2.023-.315.01-.442.275-.609.47q-5.783,6.732-11.559,13.47c-.344.4-.731.716-.274,1.356a1.707,1.707,0,0,1-.2,2.215,1.856,1.856,0,0,1-2.089.522c-.369-.107-.666-.335-1.01.07-2.295,2.7-4.6,5.382-7.028,8.211.933.131,1.733.2,2.2.954a1.985,1.985,0,0,1,.277,1.314,1.725,1.725,0,0,1-1.605,1.656c-1.168.165-1.834-.406-2.382-2.017a19.306,19.306,0,0,0-2.226,2.455c-1.383,1.579-2.72,3.2-4.1,4.777a1.953,1.953,0,0,1-3.239.121c-1.907-1.871-3.785-3.773-5.679-5.657-.282-.28-.542-.733-.978-.149-2.117,2.84-4.241,5.675-6.474,8.662,1.409.142,2.479.593,2.495,2.053a1.834,1.834,0,0,1-1.43,1.856c-1.039.305-1.669-.114-2.63-1.679a3.137,3.137,0,0,0-.881,1.011q-6.6,8.786-13.194,17.58c-1.28,1.706-2.333,1.783-3.835.288-1.758-1.751-3.523-3.5-5.263-5.264-.452-.459-.735-.657-1.2.032-1.725,2.564-3.51,5.087-5.263,7.632-.238.345-.693.7.142.991a1.753,1.753,0,0,1,1.193,1.99,1.791,1.791,0,0,1-1.266,1.608,1.843,1.843,0,0,1-2.151-.624,5.067,5.067,0,0,0-.411-.357c-2.04,2.946-4.055,5.855-6.069,8.766-.179.259-.2.422.153.61,2.249,1.2,2.338,2.347.333,3.924h-1.145c-.828-1.049-1.7-1.56-2.73-.229a1.994,1.994,0,0,1-.248.229Z" transform="translate(420 0)"/><path class="a" d="M-289.869,304.419c-.083-.3-.4-.326-.591-.5a1.916,1.916,0,0,1-.219-2.833,1.978,1.978,0,0,1,2.852.023,1.941,1.941,0,0,1-.279,2.83c-.2.165-.411.319-.618.478Z" transform="translate(327.596 -215.59)"/><path class="a" d="M-175.3,304.431c-.225-.137-.463-.257-.672-.415a1.833,1.833,0,0,1-.771-2.184,1.792,1.792,0,0,1,1.785-1.323,1.743,1.743,0,0,1,1.851,1.22,1.868,1.868,0,0,1-.653,2.236c-.209.154-.416.311-.624.466Z" transform="translate(245.55 -215.602)"/><path class="a" d="M-118.173,304.4l-.625-.467a1.85,1.85,0,0,1-.651-2.234,1.772,1.772,0,0,1,1.852-1.233,1.807,1.807,0,0,1,1.783,1.336,1.817,1.817,0,0,1-.77,2.183c-.211.156-.448.277-.673.415Z" transform="translate(204.464 -215.571)"/><path class="a" d="M-60.92,304.425c-.848-.487-1.644-1.052-1.519-2.172a1.792,1.792,0,0,1,1.556-1.713,1.779,1.779,0,0,1,2.094.987,1.89,1.89,0,0,1-.491,2.372c-.225.194-.482.351-.724.525Z" transform="translate(163.475 -215.596)"/><path class="a" d="M-232.529,304.409c-.211-.153-.424-.3-.633-.458a1.849,1.849,0,0,1-.663-2.229,1.761,1.761,0,0,1,1.84-1.244,1.811,1.811,0,0,1,1.827,1.427,1.818,1.818,0,0,1-.787,2.081c-.209.158-.443.283-.666.423Z" transform="translate(286.52 -215.58)"/><path class="a" d="M-346.9,304.424c-.214-.15-.431-.295-.641-.45a1.838,1.838,0,0,1-.678-2.22,1.752,1.752,0,0,1,1.825-1.255,1.791,1.791,0,0,1,1.833,1.406,1.824,1.824,0,0,1-.766,2.087c-.205.161-.437.289-.657.432Z" transform="translate(368.588 -215.595)"/><path class="a" d="M-89.031,171.789a1.846,1.846,0,0,1,1.912,1.935,1.865,1.865,0,0,1-1.851,1.894,1.878,1.878,0,0,1-1.978-1.884A1.873,1.873,0,0,1-89.031,171.789Z" transform="translate(183.92 -123.251)"/><path class="a" d="M-201.475,173.674a1.887,1.887,0,0,1-1.917,1.95,1.851,1.851,0,0,1-1.909-1.83,1.854,1.854,0,0,1,1.852-2A1.849,1.849,0,0,1-201.475,173.674Z" transform="translate(265.964 -123.256)"/><path class="a" d="M-89,286.147a1.867,1.867,0,0,1,1.873,1.983,1.837,1.837,0,0,1-1.887,1.847,1.867,1.867,0,0,1-1.942-1.915A1.892,1.892,0,0,1-89,286.147Z" transform="translate(183.923 -205.298)"/><path class="a" d="M-201.477,288.1a1.87,1.87,0,0,1-1.978,1.88,1.832,1.832,0,0,1-1.851-1.881,1.872,1.872,0,0,1,1.914-1.947A1.878,1.878,0,0,1-201.477,288.1Z" transform="translate(265.966 -205.299)"/><path class="a" d="M-115.643,73.5a1.989,1.989,0,0,1-1.975,1.946,1.94,1.94,0,0,1-1.872-1.906,1.943,1.943,0,0,1,1.891-2.007A2,2,0,0,1-115.643,73.5Z" transform="translate(204.397 -51.321)"/><path class="a" d="M-287.347,216.645a1.886,1.886,0,0,1-1.872,1.887,1.961,1.961,0,0,1-1.979-1.925,1.884,1.884,0,0,1,1.948-1.924A1.863,1.863,0,0,1-287.347,216.645Z" transform="translate(327.59 -154.025)"/><path class="a" d="M-29.942,202.213a1.941,1.941,0,0,1-1.887,1.9,1.941,1.941,0,0,1-2.027-1.874,1.981,1.981,0,0,1,1.935-1.985A2.038,2.038,0,0,1-29.942,202.213Z" transform="translate(142.96 -143.671)"/><path class="a" d="M-146.263,257.62a1.908,1.908,0,0,1,1.9,1.986,2,2,0,0,1-1.952,1.857,1.984,1.984,0,0,1-1.958-1.961A1.93,1.93,0,0,1-146.263,257.62Z" transform="translate(225.048 -184.831)"/><path class="a" d="M-29.92,116.366a2,2,0,0,1-1.971,1.952,1.941,1.941,0,0,1-1.924-1.867,2,2,0,0,1,1.9-2.026A2.029,2.029,0,0,1-29.92,116.366Z" transform="translate(142.929 -82.095)"/><path class="a" d="M-346.43,275.6a2.029,2.029,0,0,1-2.016-1.931,2.037,2.037,0,0,1,1.838-1.988,2.063,2.063,0,0,1,2.081,1.993A2.032,2.032,0,0,1-346.43,275.6Z" transform="translate(368.663 -194.919)"/><path class="a" d="M-144.379,202.221a1.926,1.926,0,0,1-1.9,1.884,1.961,1.961,0,0,1-2.03-1.879,2.033,2.033,0,0,1,1.961-1.978A2.025,2.025,0,0,1-144.379,202.221Z" transform="translate(225.071 -143.669)"/><path class="a" d="M-29.93,230.761A2.023,2.023,0,0,1-31.9,232.73a2,2,0,0,1-1.926-1.883,2,2,0,0,1,1.9-2.029A2.027,2.027,0,0,1-29.93,230.761Z" transform="translate(142.938 -164.166)"/><path class="a" d="M-115.629,273.625a2.006,2.006,0,0,1-1.939,1.991,1.928,1.928,0,0,1-1.913-1.98,1.913,1.913,0,0,1,1.837-1.931A2.027,2.027,0,0,1-115.629,273.625Z" transform="translate(204.39 -194.936)"/><path class="a" d="M-317.749,289.98a1.829,1.829,0,0,1-1.92-1.922,1.858,1.858,0,0,1,1.948-1.907,1.894,1.894,0,0,1,1.885,1.872A1.892,1.892,0,0,1-317.749,289.98Z" transform="translate(348.017 -205.301)"/><path class="a" d="M-89.011,85.929A1.868,1.868,0,0,1-87.116,87.9,1.841,1.841,0,0,1-89.1,89.76a1.826,1.826,0,0,1-1.845-1.888A1.908,1.908,0,0,1-89.011,85.929Z" transform="translate(183.916 -61.65)"/><path class="a" d="M-89.072,61.265a1.9,1.9,0,0,1-1.874-2,1.856,1.856,0,0,1,2.017-1.834,1.824,1.824,0,0,1,1.811,1.915A1.892,1.892,0,0,1-89.072,61.265Z" transform="translate(183.918 -41.206)"/><path class="a" d="M-201.467,230.76a1.981,1.981,0,0,1-1.936,1.983,1.962,1.962,0,0,1-1.9-2.007,1.92,1.92,0,0,1,1.862-1.915A1.969,1.969,0,0,1-201.467,230.76Z" transform="translate(265.962 -164.169)"/><path class="a" d="M-89.1,232.732a1.967,1.967,0,0,1-1.846-2.055,1.943,1.943,0,0,1,1.927-1.861,1.953,1.953,0,0,1,1.9,2A1.955,1.955,0,0,1-89.1,232.732Z" transform="translate(183.92 -164.165)"/><path class="a" d="M-60.534,214.713a1.867,1.867,0,0,1,1.926,1.938,1.93,1.93,0,0,1-1.989,1.9,2,2,0,0,1-1.889-1.915A1.906,1.906,0,0,1-60.534,214.713Z" transform="translate(163.5 -154.047)"/><path class="a" d="M-289.2,243.209a1.87,1.87,0,0,1,1.859,2,1.807,1.807,0,0,1-1.89,1.833,1.874,1.874,0,0,1-1.942-1.918A1.936,1.936,0,0,1-289.2,243.209Z" transform="translate(327.574 -174.492)"/><path class="a" d="M-115.632,216.6a1.952,1.952,0,0,1-1.942,1.952,1.85,1.85,0,0,1-1.9-1.844,1.825,1.825,0,0,1,1.852-1.987A1.877,1.877,0,0,1-115.632,216.6Z" transform="translate(204.386 -154.052)"/><path class="a" d="M-231.993,247.048a1.82,1.82,0,0,1-1.885-1.955A1.884,1.884,0,0,1-232,243.217a1.971,1.971,0,0,1,1.983,1.92A1.93,1.93,0,0,1-231.993,247.048Z" transform="translate(286.466 -174.497)"/><path class="a" d="M-174.9,243.2a1.873,1.873,0,0,1,1.906,1.959,1.786,1.786,0,0,1-1.842,1.876,1.906,1.906,0,0,1-2-1.871A1.968,1.968,0,0,1-174.9,243.2Z" transform="translate(245.542 -174.484)"/><path class="a" d="M-115.633,245.122a1.9,1.9,0,0,1-1.949,1.926,1.808,1.808,0,0,1-1.9-1.942,1.872,1.872,0,0,1,1.86-1.889A1.942,1.942,0,0,1-115.633,245.122Z" transform="translate(204.389 -174.498)"/><path class="a" d="M-60.507,243.19a1.9,1.9,0,0,1,1.868,2.008,1.8,1.8,0,0,1-1.891,1.832,1.941,1.941,0,0,1-1.976-1.916A2,2,0,0,1-60.507,243.19Z" transform="translate(163.513 -174.478)"/><path class="a" d="M-317.785,261.432a1.914,1.914,0,0,1-1.916-1.969,1.864,1.864,0,0,1,1.977-1.887,1.9,1.9,0,0,1,1.866,1.9A1.927,1.927,0,0,1-317.785,261.432Z" transform="translate(348.04 -184.799)"/><path class="a" d="M-258.788,259.471a1.95,1.95,0,0,1-1.906,2,2,2,0,0,1-1.981-1.938,1.927,1.927,0,0,1,1.87-1.9A1.865,1.865,0,0,1-258.788,259.471Z" transform="translate(307.126 -184.834)"/><path class="a" d="M-29.9,259.51a2.012,2.012,0,0,1-1.968,1.957,1.928,1.928,0,0,1-1.92-1.976,1.872,1.872,0,0,1,1.89-1.865A1.91,1.91,0,0,1-29.9,259.51Z" transform="translate(142.908 -184.835)"/><path class="a" d="M-232.024,275.609a1.953,1.953,0,0,1-1.892-2.016,1.942,1.942,0,0,1,1.886-1.9,2.062,2.062,0,0,1,1.991,1.962A2.03,2.03,0,0,1-232.024,275.609Z" transform="translate(286.493 -194.928)"/><path class="a" d="M-174.945,275.6a1.938,1.938,0,0,1-1.883-2.014,2.017,2.017,0,0,1,2.05-1.872,1.919,1.919,0,0,1,1.788,2.088A1.877,1.877,0,0,1-174.945,275.6Z" transform="translate(245.536 -194.937)"/><path class="a" d="M-144.365,288a1.956,1.956,0,0,1-1.924,1.979,1.952,1.952,0,0,1-1.993-1.906,1.943,1.943,0,0,1,1.865-1.924A1.967,1.967,0,0,1-144.365,288Z" transform="translate(225.054 -205.299)"/><path class="a" d="M-174.944,214.685a1.861,1.861,0,0,1,1.964,1.9,1.9,1.9,0,0,1-1.933,1.948,1.978,1.978,0,0,1-1.927-1.983A1.894,1.894,0,0,1-174.944,214.685Z" transform="translate(245.544 -154.027)"/><path class="a" d="M-231.944,214.719a1.906,1.906,0,0,1,1.92,1.958,1.979,1.979,0,0,1-2.033,1.872,1.866,1.866,0,0,1-1.826-1.924A1.829,1.829,0,0,1-231.944,214.719Z" transform="translate(286.469 -154.052)"/><path class="a" d="M-29.953,87.884a1.925,1.925,0,0,1-2.028,1.86,1.936,1.936,0,0,1-1.887-1.9A1.984,1.984,0,0,1-31.9,85.9,2.012,2.012,0,0,1-29.953,87.884Z" transform="translate(142.967 -61.629)"/><path class="a" d="M-58.618,102.2a1.944,1.944,0,0,1-1.937,1.96,2.032,2.032,0,0,1-1.943-1.992,1.92,1.92,0,0,1,1.907-1.867A1.874,1.874,0,0,1-58.618,102.2Z" transform="translate(163.507 -71.961)"/><path class="a" d="M-258.815,202.2a1.833,1.833,0,0,1-1.841,1.9,1.949,1.949,0,0,1-2.044-1.85,2.039,2.039,0,0,1,1.937-2A1.953,1.953,0,0,1-258.815,202.2Z" transform="translate(307.144 -143.669)"/><path class="a" d="M-115.653,187.929a1.984,1.984,0,0,1-1.967,1.952,1.944,1.944,0,0,1-1.884-1.9,1.918,1.918,0,0,1,1.887-2A1.972,1.972,0,0,1-115.653,187.929Z" transform="translate(204.407 -133.433)"/><path class="a" d="M-174.843,189.917a2,2,0,0,1-1.98-1.939,1.946,1.946,0,0,1,1.839-1.944,1.875,1.875,0,0,1,2,1.858A1.933,1.933,0,0,1-174.843,189.917Z" transform="translate(245.531 -133.469)"/><path class="a" d="M-146.306,171.8a1.956,1.956,0,0,1,1.942,1.959,1.983,1.983,0,0,1-2.042,1.875,1.979,1.979,0,0,1-1.879-1.92A1.923,1.923,0,0,1-146.306,171.8Z" transform="translate(225.056 -123.257)"/><path class="a" d="M-174.9,157.328a1.9,1.9,0,0,1,1.92,1.958,1.819,1.819,0,0,1-1.83,1.9,1.887,1.887,0,0,1-2.011-1.859A2.009,2.009,0,0,1-174.9,157.328Z" transform="translate(245.531 -112.876)"/><path class="a" d="M-115.651,159.269a1.945,1.945,0,0,1-1.973,1.923,1.877,1.877,0,0,1-1.886-1.985,1.92,1.92,0,0,1,1.88-1.894A2.031,2.031,0,0,1-115.651,159.269Z" transform="translate(204.412 -112.865)"/><path class="a" d="M-58.62,73.477a1.943,1.943,0,0,1-1.929,1.971,2.028,2.028,0,0,1-1.933-2,2.041,2.041,0,0,1,1.911-1.914A1.939,1.939,0,0,1-58.62,73.477Z" transform="translate(163.496 -51.321)"/><path class="a" d="M-117.539,128.867a1.923,1.923,0,0,1,1.9,1.975,1.919,1.919,0,0,1-2.027,1.852,1.827,1.827,0,0,1-1.816-1.912A1.854,1.854,0,0,1-117.539,128.867Z" transform="translate(204.388 -92.457)"/><path class="a" d="M-60.465,271.713a1.928,1.928,0,0,1,1.84,2.045,1.862,1.862,0,0,1-1.918,1.828,1.941,1.941,0,0,1-1.941-1.957A2.037,2.037,0,0,1-60.465,271.713Z" transform="translate(163.498 -194.941)"/><path class="a" d="M-146.331,147.075a2.022,2.022,0,0,1-1.942-1.991,1.944,1.944,0,0,1,2.027-1.869,1.915,1.915,0,0,1,1.885,1.892A2.031,2.031,0,0,1-146.331,147.075Z" transform="translate(225.048 -102.75)"/><path class="a" d="M-31.834,143.218a1.915,1.915,0,0,1,1.964,1.923,2.037,2.037,0,0,1-2,1.937,1.937,1.937,0,0,1-1.876-1.909A1.865,1.865,0,0,1-31.834,143.218Z" transform="translate(142.879 -102.753)"/><path class="a" d="M-89.1,257.579a1.875,1.875,0,0,1,1.969,1.9,1.919,1.919,0,0,1-1.925,1.962,1.963,1.963,0,0,1-1.918-1.871A1.872,1.872,0,0,1-89.1,257.579Z" transform="translate(183.94 -184.802)"/><path class="a" d="M-203.431,257.572a1.891,1.891,0,0,1,1.935,1.941,1.925,1.925,0,0,1-1.852,1.92,1.94,1.94,0,0,1-1.993-1.9A1.879,1.879,0,0,1-203.431,257.572Z" transform="translate(265.991 -184.797)"/><path class="a" d="M-29.9,173.7a1.973,1.973,0,0,1-1.978,1.932,1.906,1.906,0,0,1-1.913-1.967,1.872,1.872,0,0,1,1.893-1.863A1.95,1.95,0,0,1-29.9,173.7Z" transform="translate(142.91 -123.259)"/><path class="a" d="M-87.117,202.19a1.84,1.84,0,0,1-1.919,1.928,1.829,1.829,0,0,1-1.908-1.828,1.933,1.933,0,0,1,1.868-2.015A1.89,1.89,0,0,1-87.117,202.19Z" transform="translate(183.917 -143.687)"/><path class="a" d="M-344.477,245.1a1.944,1.944,0,0,1-1.944,1.952,1.9,1.9,0,0,1-1.95-1.922,1.919,1.919,0,0,1,1.865-1.912A1.989,1.989,0,0,1-344.477,245.1Z" transform="translate(368.609 -174.495)"/><path class="a" d="M-201.474,202.167a1.857,1.857,0,0,1-1.9,1.95,1.815,1.815,0,0,1-1.921-1.805,1.916,1.916,0,0,1,1.84-2.037A1.913,1.913,0,0,1-201.474,202.167Z" transform="translate(265.963 -143.687)"/><path class="a" d="M-260.78,232.736a2.028,2.028,0,0,1-1.892-2.044,2.036,2.036,0,0,1,2.071-1.865,1.941,1.941,0,0,1,1.8,2.1A1.949,1.949,0,0,1-260.78,232.736Z" transform="translate(307.126 -164.17)"/><path class="a" d="M-117.583,104.18a1.875,1.875,0,0,1-1.889-1.978,1.809,1.809,0,0,1,1.861-1.863,1.876,1.876,0,0,1,1.979,1.887A1.981,1.981,0,0,1-117.583,104.18Z" transform="translate(204.384 -71.989)"/><path class="a" d="M-31.835,289.979a1.9,1.9,0,0,1-1.962-1.911,1.906,1.906,0,0,1,1.852-1.917,1.965,1.965,0,0,1,2.039,1.859A1.951,1.951,0,0,1-31.835,289.979Z" transform="translate(142.916 -205.3)"/><path class="a" d="M-144.361,116.445a1.958,1.958,0,0,1-2.047,1.859,1.939,1.939,0,0,1-1.864-1.924,2.032,2.032,0,0,1,1.991-1.949A2.025,2.025,0,0,1-144.361,116.445Z" transform="translate(225.046 -82.098)"/><path class="a" d="M-89.05,118.326a1.938,1.938,0,0,1-1.9-2,1.941,1.941,0,0,1,1.877-1.907,1.962,1.962,0,0,1,1.957,1.946A1.934,1.934,0,0,1-89.05,118.326Z" transform="translate(183.918 -82.092)"/><path class="a" d="M-260.758,286.151a1.938,1.938,0,0,1,1.989,1.907,1.936,1.936,0,0,1-1.971,1.928,1.962,1.962,0,0,1-1.934-1.854A1.941,1.941,0,0,1-260.758,286.151Z" transform="translate(307.126 -205.301)"/><path class="a" d="M-144.363,230.734a2.032,2.032,0,0,1-1.945,2,2.028,2.028,0,0,1-1.965-1.858,2.031,2.031,0,0,1,1.887-2.054A2.022,2.022,0,0,1-144.363,230.734Z" transform="translate(225.05 -164.166)"/><path class="a" d="M-58.62,187.969a1.938,1.938,0,0,1-1.919,1.973,2.026,2.026,0,0,1-1.941-1.989,1.967,1.967,0,0,1,1.9-1.886A1.855,1.855,0,0,1-58.62,187.969Z" transform="translate(163.495 -133.494)"/><path class="a" d="M-60.5,132.68a1.945,1.945,0,0,1-1.986-1.905,1.973,1.973,0,0,1,1.981-1.927,1.86,1.86,0,0,1,1.88,1.867A1.815,1.815,0,0,1-60.5,132.68Z" transform="translate(163.502 -92.443)"/><path class="a" d="M-89.018,143.158a1.888,1.888,0,0,1,1.885,1.992,1.932,1.932,0,0,1-1.888,1.89,1.985,1.985,0,0,1-1.956-1.959A1.907,1.907,0,0,1-89.018,143.158Z" transform="translate(183.94 -102.71)"/><path class="a" d="M-287.339,273.634a1.892,1.892,0,0,1-1.908,1.965,1.913,1.913,0,0,1-1.923-1.851,1.989,1.989,0,0,1,1.872-2.04A1.913,1.913,0,0,1-287.339,273.634Z" transform="translate(327.571 -194.937)"/><path class="a" d="M-232.032,189.935a1.939,1.939,0,0,1-1.86-2.03,1.879,1.879,0,0,1,2.02-1.845A1.965,1.965,0,0,1-230.03,188,2.025,2.025,0,0,1-232.032,189.935Z" transform="translate(286.477 -133.488)"/><path class="a" d="M-230.043,159.3a1.947,1.947,0,0,1-2.017,1.882,1.879,1.879,0,0,1-1.86-1.9A1.943,1.943,0,0,1-232,157.309,2.05,2.05,0,0,1-230.043,159.3Z" transform="translate(286.496 -112.862)"/><path class="a" d="M-58.625,159.242a1.842,1.842,0,0,1-1.9,1.945,1.91,1.91,0,0,1-1.955-1.816,2.03,2.03,0,0,1,1.887-2.043A1.914,1.914,0,0,1-58.625,159.242Z" transform="translate(163.499 -112.875)"/><path class="a" d="M-373.179,288.015a1.89,1.89,0,0,1-1.909,1.968,1.954,1.954,0,0,1-1.969-1.933,1.933,1.933,0,0,1,1.871-1.905A1.9,1.9,0,0,1-373.179,288.015Z" transform="translate(389.19 -205.296)"/></g></svg>