<svg xmlns="http://www.w3.org/2000/svg" width="86.056" height="107.015" viewBox="0 0 86.056 107.015"><defs><style>.a{fill:#3e729a;}</style></defs><g transform="translate(0 27.015)"><path class="a" d="M-1175.793,193.877c0-.6.048-1.2-.01-1.795-.061-.619.189-.732.747-.714,1.222.04,2.447-.011,3.669.024.493.014.606-.147.6-.618q-.024-7.5,0-14.99c0-.584-.209-.664-.718-.663q-9.8.024-19.6.012c-2.993,0-5.986-.02-8.978.013-.6.006-.732-.166-.723-.738.027-1.761,0-1.793,1.708-1.754.645.015.822-.155.821-.812-.023-9.421-.007-18.842-.032-28.262,0-.723.129-.954.913-.95q11.008.052,22.017,0c.712,0,.839.2.837.861-.023,9.421-.008,18.842-.03,28.263,0,.692.143.967.881.9a13.278,13.278,0,0,1,2.262,0c.634.05.634-.278.633-.745q-.017-6.793-.007-13.585,0-21.821-.013-43.643c0-.593.126-.782.759-.782q21.744.029,43.488,0c.742,0,.751.306.751.868q-.013,37.865-.019,75.731c0,.682.124.961.872.9.958-.073,1.926-.019,2.889-.02,0,.728-.014,1.456.007,2.183.008.261-.034.375-.317.32a2.074,2.074,0,0,0-.389,0Zm7.5-40.063q0,.82,0,1.64,0,17.608-.016,35.216c0,.6.165.731.739.724q4.255-.045,8.511,0c.595.006.788-.128.782-.761-.033-3.461,0-6.924-.025-10.385a9.77,9.77,0,0,1,.784-4.023c1.727-3.97,4.755-6.491,9.042-6.843,6.207-.51,11.458,4.733,11.426,10.983-.017,3.436.011,6.872-.021,10.307-.006.6.171.73.742.723q3.669-.048,7.34,0c.538.006.7-.124.7-.683q-.021-36.777,0-73.555c0-.632-.186-.761-.781-.76q-19.248.026-38.5,0c-.567,0-.742.117-.741.719Q-1168.284,135.465-1168.3,153.815Zm-8.743,5.076c0-4.293-.011-8.586.012-12.879,0-.631-.086-.891-.826-.886q-8.586.055-17.173.006c-.614,0-.776.163-.775.776q.03,13,0,25.994c0,.548.086.754.708.751q8.664-.039,17.329,0c.576,0,.741-.133.737-.726C-1177.052,167.582-1177.04,163.236-1177.04,158.891Zm29.982,22.731q0,4.526,0,9.052c0,.406-.054.736.574.723,2.132-.042,4.266-.024,6.4-.009.394,0,.543-.095.541-.518-.019-3.72.063-7.441-.043-11.158a7.934,7.934,0,0,0-6.813-7.752c-.62-.093-.668.094-.665.61C-1147.048,175.587-1147.058,178.6-1147.058,181.622Zm-2.493.072q0-4.372,0-8.744c0-.917-.015-.925-.9-.615a7.983,7.983,0,0,0-5.332,7.447c-.055,3.668-.008,7.338-.031,11.007,0,.5.153.61.62.6,1.639-.026,3.279-.035,4.918,0,.572.013.748-.124.741-.723C-1149.569,187.679-1149.552,184.686-1149.551,181.694Z" transform="translate(1200.795 -113.895)"/><path class="a" d="M-1049.759,138.747c0,2.028-.015,4.056.01,6.084.007.506-.073.724-.66.72-3.744-.026-7.488-.019-11.232,0-.469,0-.621-.112-.618-.6q.029-6.279,0-12.558c0-.5.157-.6.621-.6,3.744.017,7.489.023,11.232-.005.589,0,.664.22.658.723C-1049.773,134.587-1049.759,136.667-1049.759,138.747Zm-2.5-.081h0c0-1.274-.009-2.548.006-3.822,0-.368-.05-.566-.5-.561-2.158.02-4.317.017-6.475,0-.395,0-.546.1-.543.524q.024,3.861,0,7.723c0,.424.147.518.542.515,2.132-.017,4.265-.027,6.4.005.528.008.583-.209.576-.641C-1052.27,141.163-1052.256,139.915-1052.256,138.666Z" transform="translate(1100.996 -126.782)"/><path class="a" d="M-1004.158,138.605c0-2.055.017-4.109-.012-6.163-.008-.522.159-.645.658-.642q5.617.029,11.234,0c.465,0,.623.1.621.6q-.029,6.319,0,12.639c0,.423-.141.52-.538.518-3.8-.013-7.594-.02-11.39,0-.522,0-.583-.2-.579-.636C-1004.148,142.818-1004.158,140.712-1004.158,138.605Zm2.494.045c0,1.275.013,2.549-.007,3.823-.007.421.1.594.559.59,2.158-.021,4.317-.017,6.475,0,.382,0,.483-.135.481-.5q-.018-3.862,0-7.724c0-.388-.085-.549-.514-.546q-3.237.029-6.475,0c-.413,0-.535.126-.528.533C-1001.651,136.1-1001.665,137.376-1001.665,138.651Z" transform="translate(1059.15 -126.793)"/><path class="a" d="M-991.672,254.94c0,2.028-.016,4.057.011,6.085.007.51-.081.721-.664.717q-5.617-.041-11.234,0c-.477,0-.615-.124-.613-.608q.028-6.28,0-12.56c0-.509.171-.592.626-.59q5.617.025,11.234,0c.5,0,.661.121.654.642C-991.69,250.727-991.672,252.833-991.672,254.94Zm-2.494-.09c0-1.248-.016-2.5.008-3.745.009-.453-.094-.639-.6-.633-2.132.027-4.265.022-6.4,0-.419,0-.525.137-.523.537q.022,3.823,0,7.646c0,.42.087.592.553.587q3.2-.035,6.4,0c.444,0,.579-.129.57-.571C-994.183,257.4-994.165,256.124-994.166,254.85Z" transform="translate(1059.153 -210.487)"/><path class="a" d="M-1062.261,254.793c0-2.054.012-4.108-.009-6.162-.005-.484.1-.675.636-.671q5.616.036,11.233.005c.513,0,.651.146.649.653q-.029,6.2,0,12.4c0,.523-.109.715-.677.711q-5.616-.04-11.233-.007c-.485,0-.615-.137-.61-.613C-1062.247,259.006-1062.261,256.9-1062.261,254.793Zm2.5.032h0c0,1.275.017,2.55-.009,3.824-.009.43.1.586.556.582q3.2-.034,6.4,0c.457,0,.563-.151.56-.581q-.028-3.824-.005-7.648c0-.4-.092-.545-.516-.541q-3.239.029-6.478,0c-.423,0-.526.145-.52.541C-1059.75,252.276-1059.763,253.551-1059.763,254.825Z" transform="translate(1101.005 -210.473)"/><path class="a" d="M-1004.17,196.75c0-2.054.014-4.108-.01-6.162-.006-.505.077-.73.663-.725,3.744.028,7.488.024,11.233.008.462,0,.626.1.624.6q-.03,6.279,0,12.558c0,.495-.162.606-.625.6q-5.655-.026-11.311,0c-.522,0-.585-.2-.581-.641C-1004.161,200.911-1004.17,198.83-1004.17,196.75Zm2.5-.065h0c0,1.275.018,2.55-.01,3.824-.01.456.081.636.59.629q3.16-.044,6.322,0c.488.006.612-.14.607-.615q-.036-3.785-.006-7.57c0-.421-.082-.593-.549-.588q-3.2.035-6.4,0c-.448,0-.576.136-.567.574C-1001.656,194.187-1001.673,195.436-1001.673,196.685Z" transform="translate(1059.158 -168.621)"/><path class="a" d="M-1062.242,196.752c0-2.08.012-4.161-.01-6.241,0-.458.092-.628.6-.625q5.656.032,11.312,0c.5,0,.6.156.6.62q-.024,6.28,0,12.561c0,.429-.095.582-.556.58q-5.7-.027-11.39,0c-.452,0-.566-.138-.562-.574C-1062.23,200.965-1062.242,198.859-1062.242,196.752Zm10,.013c0-1.248-.026-2.5.012-3.745.016-.527-.165-.646-.661-.641q-3.12.037-6.241,0c-.46,0-.63.1-.625.6q.039,3.784,0,7.568c0,.493.162.61.625.605,2.106-.021,4.213-.027,6.319,0,.53.008.582-.214.575-.645C-1052.261,199.262-1052.247,198.014-1052.246,196.765Z" transform="translate(1100.99 -168.637)"/><path class="a" d="M-1157.53,233.854c0,1.065-.021,2.131.01,3.2.013.456-.148.564-.579.56q-3.2-.029-6.391,0c-.4,0-.543-.1-.54-.52q.028-3.235,0-6.47c0-.423.14-.521.537-.518,2.13.017,4.261.026,6.391,0,.521-.008.592.2.581.639C-1157.547,231.775-1157.53,232.815-1157.53,233.854Zm-5.009-.046c.126.548-.4,1.4.854,1.325,1.656-.1,1.66-.021,1.663-1.357,0-1.168,0-1.1-1.739-1.193C-1162.94,232.524-1162.4,233.332-1162.539,233.808Z" transform="translate(1175.031 -197.605)"/><path class="a" d="M-1161.291,261.385c1.039,0,2.079.016,3.118-.008.436-.01.648.058.641.58-.03,2.13-.021,4.261-.005,6.391,0,.393-.094.544-.518.541q-3.234-.029-6.469,0c-.419,0-.526-.14-.523-.537.016-2.13.024-4.261,0-6.391-.007-.521.209-.592.644-.583C-1163.37,261.4-1162.33,261.385-1161.291,261.385Zm-.064,5c1.317,0,1.317,0,1.317-1.292v-.078c0-1.125,0-1.125-1.154-1.133-1.359-.009-1.359-.009-1.35,1.325C-1162.534,266.387-1162.534,266.387-1161.355,266.388Z" transform="translate(1175.047 -220.138)"/><path class="a" d="M-1161.282,292.676c1.066,0,2.131.022,3.2-.01.454-.014.564.141.56.575-.021,2.13-.017,4.261,0,6.392,0,.391-.089.546-.516.542q-3.235-.029-6.47,0c-.42,0-.523-.135-.52-.535.017-2.13.026-4.261,0-6.392-.008-.521.2-.592.638-.581C-1163.361,292.693-1162.321,292.676-1161.282,292.676Zm1.254,3.737c0-1.243,0-1.243-1.13-1.244-1.374,0-1.374,0-1.374.989,0,1.516,0,1.516,1.325,1.516C-1160.028,297.674-1160.028,297.674-1160.028,296.412Z" transform="translate(1175.037 -242.678)"/></g><path class="a" d="M-1195.49,60.825l1.589-4.89-4.159-3.022h5.141l1.589-4.889,1.589,4.889h5.141l-4.159,3.022,1.588,4.89-4.159-3.022Zm4.16-4.4,2.032,1.476-.776-2.389,2.032-1.476h-2.511l-.776-2.389-.776,2.389h-2.511l2.032,1.476-.776,2.389Z" transform="translate(1198.825 -39.428)"/><path class="a" d="M-938.6,60.825l1.589-4.89-4.159-3.022h5.141l1.589-4.889,1.589,4.889h5.141l-4.159,3.022,1.589,4.89-4.16-3.022Zm4.16-4.4,2.032,1.476-.776-2.389,2.032-1.476h-2.512l-.776-2.389-.776,2.389h-2.512l2.032,1.476-.776,2.389Z" transform="translate(1013.764 -39.428)"/><path class="a" d="M-1131.815,46.171-1137,42.4l-5.189,3.77,1.982-6.1-5.188-3.77h6.414l1.982-6.1,1.982,6.1h6.414l-5.189,3.77Zm-5.189-5.5,2.53,1.838-.966-2.974,2.53-1.838h-3.127l-.966-2.974-.966,2.974h-3.127l2.53,1.838-.966,2.974Z" transform="translate(1160.889 -26.588)"/><path class="a" d="M-992.157,46.171l-5.189-3.77-5.189,3.77,1.982-6.1-5.189-3.77h6.414l1.982-6.1,1.982,6.1h6.414l-5.189,3.77Zm-9.282-8.472,2.53,1.838-.966,2.974,2.53-1.838,2.53,1.838-.966-2.974,2.53-1.838h-3.127l-.966-2.974-.966,2.974Z" transform="translate(1060.282 -26.588)"/><path class="a" d="M-1065.708,36.865l-6.363-4.623-6.363,4.623,2.431-7.48-6.364-4.623h7.866l2.43-7.48,2.43,7.48h7.865l-6.363,4.623Zm-6.363-6.351,3.7,2.691-1.415-4.354,3.7-2.691h-4.578l-1.415-4.354-1.415,4.354h-4.579l3.7,2.691-1.415,4.354Z" transform="translate(1115.481 -17.281)"/></svg>