<svg xmlns="http://www.w3.org/2000/svg" width="112.945" height="97.868" viewBox="0 0 112.945 97.868"><defs><style>.a{fill:#3e729a;}</style></defs><path class="a" d="M-1146,8.69V89.259a4.593,4.593,0,0,0-.245.711,9.316,9.316,0,0,1-7.11,7.567c-.421.1-.836.22-1.254.332h-95.8a1.059,1.059,0,0,0-.277-.17c-5.788-1.4-8.251-4.525-8.251-10.488V41.092c0-10.518-.025-21.036.009-31.554a9.317,9.317,0,0,1,13.91-8.306,8.911,8.911,0,0,1,4.761,8.149c.025,1.97.043,1.969,2.041,1.964q3.034-.007,6.068-.011,32.49,0,64.981.007c2.327,0,2.327-.017,2.417-2.366a9.262,9.262,0,0,1,7.915-8.846,9.3,9.3,0,0,1,10.38,6.762C-1146.289,7.486-1146.15,8.09-1146,8.69Zm-56.521,85.456v.008h25.494c7.21,0,14.42.015,21.631-.011a5.757,5.757,0,0,0,5.669-5.278,5.772,5.772,0,0,0-4.577-6.037,5.685,5.685,0,0,0-6.613,3.989,17.419,17.419,0,0,0-.3,1.845,1.757,1.757,0,0,1-2.475,1.4c-.98-.42-1.071-1.267-1.07-2.2q.016-35.2.009-70.409c0-2.532.009-2.533-2.482-2.533h-43.7c-9.344,0-18.687.013-28.03-.018-1,0-1.342.28-1.313,1.308.071,2.536.032,5.076.032,7.614q0,28.307,0,56.614c0,2.685.007,5.371-.031,8.056a1.654,1.654,0,0,1-1.657,1.711A1.731,1.731,0,0,1-1243.8,88.7c-.071-.4-.089-.8-.146-1.2a5.708,5.708,0,0,0-5.969-4.769,5.739,5.739,0,0,0-5.382,5.894,5.766,5.766,0,0,0,5.874,5.527Q-1225.972,94.152-1202.52,94.146Zm-41.414-13.268c.037-.522.085-.875.085-1.229q.005-6.511,0-13.022.007-25.823.011-51.647c0-2.169.063-4.349-.134-6.5a5.59,5.59,0,0,0-6.436-4.759,5.756,5.756,0,0,0-4.893,6.008q-.006,34.985,0,69.97c0,.348.039.7.07,1.206A9.76,9.76,0,0,1-1243.934,80.879Zm94.219.065V79.41q0-22.723,0-45.446c0-8.126.015-16.252,0-24.378a5.742,5.742,0,0,0-7.088-5.783c-2.676.616-4.377,3.012-4.373,6.109q.016,11.582.01,23.163,0,23.328-.009,46.657c0,.34.058.68.1,1.145A9.849,9.849,0,0,1-1149.715,80.944Z" transform="translate(1258.944 0)"/><path class="a" d="M-1009.707,279.987c2.423,0,4.847-.011,7.27.006,1.427.01,2.015.588,2.027,2q.033,3.525.011,7.05a1.822,1.822,0,0,1-2.005,2.085q-7.271.041-14.541-.009c-1.484-.01-2.118-.716-2.128-2.214q-.023-3.415,0-6.83a1.822,1.822,0,0,1,2.094-2.085C-1014.554,279.978-1012.13,279.986-1009.707,279.987Zm.021,7.522c.991,0,1.983-.006,2.974,0,2.823.02,2.788.022,2.758-2.8-.01-.936-.359-1.183-1.238-1.165-2.459.051-4.919.027-7.379.032-2.946.007-2.916.007-2.887,2.963.008.807.305,1,1.037.981C-1012.843,287.484-1011.264,287.51-1009.685,287.509Z" transform="translate(1086.856 -200.876)"/><path class="a" d="M-1106.7,306.581q4.911,0,9.822,0c1.478,0,2.286.636,2.3,1.782.018,1.161-.858,1.85-2.373,1.851q-9.656,0-19.312,0a7.326,7.326,0,0,1-.882-.027,1.829,1.829,0,0,1-1.756-1.893,1.785,1.785,0,0,1,1.935-1.692c3.421-.016,6.842-.006,10.263-.006Z" transform="translate(1158.466 -219.958)"/><path class="a" d="M-1072.294,279.99c1.508,0,3.017-.017,4.524,0a1.768,1.768,0,0,1,1.975,1.749,1.752,1.752,0,0,1-1.936,1.8q-4.634.054-9.269,0a1.675,1.675,0,0,1-1.78-1.811,1.674,1.674,0,0,1,1.85-1.734C-1075.384,279.97-1073.839,279.991-1072.294,279.99Z" transform="translate(1129.683 -200.876)"/><path class="a" d="M-987.224,128.532c-.239,1.43-.741,2.161-1.763,2.362-.936.185-1.62-.373-2.13-1.489a4.2,4.2,0,0,0-1.137-1.267c-1.071-.93-1.29-1.852-.594-2.764s1.767-.939,2.9-.051a10.477,10.477,0,0,1,1.6,1.338A12.908,12.908,0,0,1-987.224,128.532Z" transform="translate(1068.32 -89.447)"/><path class="a" d="M-1141.717,123.918a7.517,7.517,0,0,1,1.442,1.3,1.515,1.515,0,0,1-.377,2,5.8,5.8,0,0,0-1.924,2.311,1.872,1.872,0,0,1-1.621.778,2.371,2.371,0,0,1-1.488-1.217,2.428,2.428,0,0,1,.884-3.1c.569-.464,1.11-.967,1.7-1.4A10.036,10.036,0,0,1-1141.717,123.918Z" transform="translate(1177.867 -88.906)"/><path class="a" d="M-1142.081,166.232c0,.329.011.659,0,.988a1.827,1.827,0,0,1-1.642,1.87,1.843,1.843,0,0,1-1.966-1.677,11.247,11.247,0,0,1,.021-2.408,1.724,1.724,0,0,1,1.911-1.568,1.716,1.716,0,0,1,1.671,1.808c.016.328,0,.658,0,.987Z" transform="translate(1177.729 -117.256)"/><path class="a" d="M-981.963,166.22a10.311,10.311,0,0,1-.173,1.514,1.708,1.708,0,0,1-1.887,1.334,1.773,1.773,0,0,1-1.62-1.768c-.034-.656-.028-1.316-.007-1.974a1.757,1.757,0,0,1,1.8-1.9,1.792,1.792,0,0,1,1.817,1.807c.029.326,0,.657,0,.987Z" transform="translate(1062.88 -117.247)"/><path class="a" d="M-1142.02,202.893c.012,1.88-.513,2.685-1.759,2.715-1.284.031-1.868-.813-1.871-2.749a6.71,6.71,0,0,1,.106-1.521,1.72,1.72,0,0,1,1.857-1.383,1.789,1.789,0,0,1,1.663,1.731C-1142,202.087-1142.02,202.491-1142.02,202.893Z" transform="translate(1177.661 -143.46)"/><path class="a" d="M-985.633,202.741c0-.329-.014-.659,0-.988a1.826,1.826,0,0,1,1.67-1.844,1.828,1.828,0,0,1,1.921,1.6,11.213,11.213,0,0,1,.013,2.408,1.755,1.755,0,0,1-1.958,1.646,1.726,1.726,0,0,1-1.642-1.837C-985.643,203.4-985.631,203.07-985.633,202.741Z" transform="translate(1062.86 -143.424)"/><path class="a" d="M-1089.378,84.79c.243.185.973.469,1.167.963a2.31,2.31,0,0,1-.168,1.915,5.429,5.429,0,0,1-2.131,1.661,2.084,2.084,0,0,1-1.774-.312,2.188,2.188,0,0,1-.6-1.625C-1092.845,86.408-1090.791,84.8-1089.378,84.79Z" transform="translate(1139.808 -60.833)"/><path class="a" d="M-1041.358,84.778c1.393,0,3.455,1.578,3.526,2.565a2.173,2.173,0,0,1-.547,1.637,2.047,2.047,0,0,1-1.764.339,6.055,6.055,0,0,1-2.211-1.722,2.14,2.14,0,0,1-.158-1.824C-1042.3,85.272-1041.6,84.975-1041.358,84.778Z" transform="translate(1103.758 -60.825)"/><path class="a" d="M-1085.621,188.813c0-1.591.7-2.306,2.26-2.318,1.405-.011,2.276.678,2.3,1.82a3.43,3.43,0,0,1-2.729,2.745C-1084.972,191.059-1085.622,190.26-1085.621,188.813Z" transform="translate(1134.592 -133.802)"/><path class="a" d="M-1044.413,189.2a1.81,1.81,0,0,1-1.1,2.075,1.829,1.829,0,0,1-2.313-.761,7.161,7.161,0,0,0-.637-.6c-.779-.859-.659-2.355.383-2.711a4.288,4.288,0,0,1,2.725,0c.561.216.829,1.194,1.227,1.831Z" transform="translate(1108.298 -134.148)"/><path class="a" d="M-1112.994,106.559c-.028,1.349-2.486,3.175-3.769,2.8a1.794,1.794,0,0,1-.743-2.937,8.854,8.854,0,0,1,1.794-1.432A1.781,1.781,0,0,1-1112.994,106.559Z" transform="translate(1157.821 -75.135)"/><path class="a" d="M-1014.64,109.979c-1.134-.264-3.148-1.828-3.193-2.768a2.219,2.219,0,0,1,.641-1.7,2.319,2.319,0,0,1,1.893-.2,4.1,4.1,0,0,1,1.87,1.465,2.559,2.559,0,0,1,.273,2C-1013.338,109.293-1014.121,109.589-1014.64,109.979Z" transform="translate(1085.958 -75.476)"/><path class="a" d="M-1065.736,70.9c-1.673.01-2.5-.552-2.513-1.713a2.912,2.912,0,0,1,2.49-2.385,2.891,2.891,0,0,1,2.625,2.36C-1063.129,70.344-1063.951,70.894-1065.736,70.9Z" transform="translate(1122.129 -47.93)"/><path class="a" d="M-1143.358,241.078c-1.638,0-2.288-.634-2.292-2.234,0-1.416.685-2.295,1.811-2.311a3.526,3.526,0,0,1,2.734,2.763C-1141.1,240.5-1141.831,241.078-1143.358,241.078Z" transform="translate(1177.661 -169.702)"/><path class="a" d="M-986.672,241.093a1.782,1.782,0,0,1-2.092-1.049,1.811,1.811,0,0,1,.745-2.308,6.826,6.826,0,0,0,.592-.646c.851-.784,2.353-.685,2.716.344a4.285,4.285,0,0,1,.033,2.724c-.209.558-1.189.827-1.824,1.225Z" transform="translate(1065.213 -169.73)"/><path class="a" d="M-1043.045,241.4c-.906-.044-1.817-.234-2.01-1.125a4.945,4.945,0,0,1,.183-2.717,1.882,1.882,0,0,1,1.712-.683,7.371,7.371,0,0,1,2.3,2.3c.212.341-.263,1.3-.671,1.769C-1041.825,241.283-1042.525,241.264-1043.045,241.4Z" transform="translate(1105.566 -169.914)"/><path class="a" d="M-1086.788,241.146a1.759,1.759,0,0,1-1.965-1.1,1.81,1.81,0,0,1,.768-2.3,7.749,7.749,0,0,0,.594-.646,1.8,1.8,0,0,1,2.815.464A2.328,2.328,0,0,1-1086.788,241.146Z" transform="translate(1136.95 -169.759)"/><path class="a" d="M-1044.431,135.886a1.914,1.914,0,0,1-1.122,2.164,1.8,1.8,0,0,1-2.287-.756c-.193-.257-.495-.43-.708-.676a1.62,1.62,0,0,1,.318-2.546,4.434,4.434,0,0,1,2.783-.13c.558.177.864,1.151,1.283,1.768Z" transform="translate(1108.326 -95.979)"/><path class="a" d="M-1085.593,135.6c0-1.637.64-2.306,2.227-2.315,1.469-.008,2.285.614,2.316,1.766a3.437,3.437,0,0,1-2.7,2.779C-1084.939,137.846-1085.59,137.058-1085.593,135.6Z" transform="translate(1134.572 -95.627)"/><path class="a" d="M-1044.345,158.989c0,1.613-.652,2.251-2.285,2.25-1.467,0-2.262-.64-2.258-1.816a3.485,3.485,0,0,1,2.762-2.728C-1044.966,156.712-1044.341,157.517-1044.345,158.989Z" transform="translate(1108.238 -112.422)"/><path class="a" d="M-1085.639,158.774a1.843,1.843,0,0,1,1.231-2.047,1.764,1.764,0,0,1,2.114.718c.179.224.524.361.613.6.225.611.614,1.351.438,1.868a2.244,2.244,0,0,1-1.482,1.2C-1084.692,161.505-1085.646,160.677-1085.639,158.774Z" transform="translate(1134.611 -112.358)"/><path class="a" d="M-1115.822,243.52a6.669,6.669,0,0,1-1.1-.01,1.644,1.644,0,0,1-1.5-1.742,1.574,1.574,0,0,1,1.467-1.748,10.667,10.667,0,0,1,1.979-.033,1.681,1.681,0,0,1,1.778,1.806,1.715,1.715,0,0,1-1.856,1.736c-.257.012-.514,0-.771,0Z" transform="translate(1158.123 -172.159)"/><path class="a" d="M-1015.906,243.5c-1.813.025-2.52-.436-2.575-1.652-.064-1.418.817-1.95,3.151-1.9,1.388.031,2.185.78,2.073,1.981a1.6,1.6,0,0,1-1.44,1.559A7.743,7.743,0,0,1-1015.906,243.5Z" transform="translate(1086.425 -172.154)"/><path class="a" d="M-1042.123,213.345a5.46,5.46,0,0,1-.008.986,1.877,1.877,0,0,1-2.74,1.242c-1.147-.581-1.23-3.952.024-4.581a1.852,1.852,0,0,1,2.714,1.258A6.264,6.264,0,0,1-1042.123,213.345Z" transform="translate(1105.994 -151.221)"/><path class="a" d="M-1085.589,213.236a5.045,5.045,0,0,1,.01-.985,1.734,1.734,0,0,1,1.731-1.538,1.618,1.618,0,0,1,1.767,1.334,6.965,6.965,0,0,1,.039,2.281,1.694,1.694,0,0,1-1.922,1.412A1.736,1.736,0,0,1-1085.6,214c-.017-.255,0-.512,0-.768Z" transform="translate(1134.585 -151.177)"/><path class="a" d="M-1065.124,133.266c1.106-.091,2.03.285,2.177,1.393a2.621,2.621,0,0,1-.715,1.882c-.646.667-2.532.508-3.2-.107a1.671,1.671,0,0,1-.448-2.094A1.971,1.971,0,0,1-1065.124,133.266Z" transform="translate(1121.595 -95.602)"/><path class="a" d="M-1064.988,190.3c-1.188-.163-2.043-.434-2.41-1.539a1.666,1.666,0,0,1,.826-2.065,3.088,3.088,0,0,1,3.214.3,1.535,1.535,0,0,1,.215,2.187A7.155,7.155,0,0,1-1064.988,190.3Z" transform="translate(1121.592 -133.718)"/><path class="a" d="M-1064.886,163.349c-1.1.1-2.022-.265-2.168-1.378a2.609,2.609,0,0,1,.719-1.879,2.858,2.858,0,0,1,3.2.1,1.688,1.688,0,0,1,.449,2.1A1.958,1.958,0,0,1-1064.886,163.349Z" transform="translate(1121.279 -114.54)"/><path class="a" d="M-966.492,144.688a2.767,2.767,0,0,1,2.513,2.334,1.754,1.754,0,0,1-1.765,1.843,3.063,3.063,0,0,1-2.563-2.356A1.81,1.81,0,0,1-966.492,144.688Z" transform="translate(1050.425 -103.807)"/><path class="a" d="M-1162.862,144.695a1.817,1.817,0,0,1,1.788,1.845,3.1,3.1,0,0,1-2.6,2.333,1.785,1.785,0,0,1-1.735-1.885A2.735,2.735,0,0,1-1162.862,144.695Z" transform="translate(1191.834 -103.812)"/></svg>