<svg xmlns="http://www.w3.org/2000/svg" width="111.184" height="103.868" viewBox="0 0 111.184 103.868"><defs><style>.a{fill:#3e729a;}</style></defs><g transform="translate(0 0)"><path class="a" d="M-839.438,11.5a11.564,11.564,0,0,1,2.323-1.338c10.907-3.323,21.837-6.585,32.751-9.892a4.514,4.514,0,0,1,2.776,0q15.946,4.836,31.923,9.588a4.782,4.782,0,0,0,2.532-.044C-756.509,6.668-745.906,3.46-735.3.271c2.283-.686,3.182-.1,3.183,2.078q.009,23.335.011,46.67a7.247,7.247,0,0,1-.085,1.391,1.632,1.632,0,0,1-1.8,1.316,1.565,1.565,0,0,1-1.7-1.288,14.588,14.588,0,0,1-.126-2.286q-.011-13.808,0-27.616,0-7.278.034-14.556c0-.618,0-1.236,0-1.992-.613.157-1,.241-1.371.354-9.458,2.843-18.909,5.7-28.378,8.512a1.314,1.314,0,0,0-1.134,1.507q.034,18.4.01,36.8c0,.459.082,1.056-.191,1.344a2.625,2.625,0,0,1-1.665.872,2.74,2.74,0,0,1-1.607-.958c-.259-.275-.218-.821-.218-1.245q-.011-18.449.011-36.9c0-.7-.106-1.125-.982-1.385-9.5-2.823-18.987-5.694-28.478-8.548-.375-.113-.761-.194-1.291-.327-.039.448-.095.794-.095,1.139q0,34.9,0,69.806c0,2.46.025,4.92-.025,7.379-.017.816.248,1.217,1.164,1.486,6.122,1.8,12.221,3.654,18.326,5.494,1.212.365,1.8,1.072,1.632,1.941-.223,1.143-1.3,1.653-2.712,1.233q-6.866-2.041-13.721-4.112c-1.815-.545-3.612-1.148-5.451-1.618a4.192,4.192,0,0,0-2.1.007q-16.072,4.784-32.117,9.644c-1.745.525-2.208.39-3.264-.925Zm34.576-7.478c-.505.119-.858.182-1.2.284q-14.288,4.286-28.58,8.562a1.247,1.247,0,0,0-1.071,1.436q.031,38.544.011,77.089v1.281c.59-.146,1.014-.231,1.423-.354,9.277-2.789,18.545-5.6,27.838-8.349,1.2-.356,1.611-.808,1.609-1.984q-.066-38.446-.033-76.891Z" transform="translate(839.438 0)"/><path class="a" d="M-598.175,241.007c-1.659-.3-3.343-.5-4.974-.908a24.734,24.734,0,0,1-18.693-24.464,24.911,24.911,0,0,1,21.855-24.306,25.018,25.018,0,0,1,27.611,21.232A24.959,24.959,0,0,1-593.689,240.7c-.685.1-1.369.207-2.054.31Zm-19.981-25.017a21.246,21.246,0,0,0,21.209,21.242,21.412,21.412,0,0,0,21.129-21.04,21.263,21.263,0,0,0-21.148-21.31A21.17,21.17,0,0,0-618.156,215.99Z" transform="translate(683.325 -137.138)"/><path class="a" d="M-565.848,258.488c2.939-4.167,5.762-8.168,8.583-12.171.743-1.054,1.464-2.123,2.223-3.166a1.922,1.922,0,0,1,2.7-.575,1.813,1.813,0,0,1,.35,2.642q-5.991,8.556-12.025,17.08a1.8,1.8,0,0,1-2.944.244q-3.381-3.183-6.719-6.412a1.852,1.852,0,0,1-.22-2.824,1.821,1.821,0,0,1,2.746.147C-569.4,255.08-567.684,256.741-565.848,258.488Z" transform="translate(649.324 -173.796)"/></g></svg>