<svg xmlns="http://www.w3.org/2000/svg" width="99.012" height="111.521" viewBox="0 0 99.012 111.521"><defs><style>.a{fill:#3e729a;}</style></defs><g transform="translate(0 0)"><path class="a" d="M-349.562,61.805c0-3.812-.019-7.625.015-11.436.008-.866-.227-1.1-1.126-1.012a48.141,48.141,0,0,0-8.568,1.5c-.714.2-.985-.014-1.1-.666-.043-.24-.138-.471-.2-.707-.655-2.35-.666-2.411,1.8-2.879,21.011-3.993,38.223,2.4,51.375,19.223a43.949,43.949,0,0,1,9.006,22.906c1.79,17.271-3.638,31.9-16.54,43.554a46.559,46.559,0,0,1-24.335,11.426c-13.206,2.118-25.45-.448-36.464-8.047-11.307-7.8-18.027-18.7-20.507-32.155A48.57,48.57,0,0,1-392.846,74.8c.4-.91.725-1.124,1.66-.652,2.378,1.2,2.4,1.155,1.393,3.667a48.442,48.442,0,0,0-3.294,13.79c-.1,1.082.162,1.485,1.351,1.455,3.4-.086,6.8-.055,10.206-.012.818.01,1.249-.172,1.148-1.061-.078-.693.235-.959.932-.876a13.252,13.252,0,0,0,1.963.108c.8-.024,1.262.187,1.113,1.1-.106.644.292.72.814.719q12.543-.013,25.087.006c.685,0,.929-.2.924-.9-.029-4.263-.046-8.526,0-12.789.01-.972-.484-1.04-1.211-1.058a62.164,62.164,0,0,1-13.453-1.971c-.831-.206-1.132-.421-.853-1.371.785-2.675.731-2.68,3.394-2.094a72.558,72.558,0,0,0,10.807,1.514c1,.067,1.343-.2,1.327-1.252C-349.6,69.348-349.562,65.576-349.562,61.805ZM-331.9,93.02c4.138,0,8.277-.029,12.414.022.983.012,1.322-.185,1.285-1.262a67.9,67.9,0,0,0-3.143-17.821c-.305-.986-.623-1.144-1.587-.741A63.8,63.8,0,0,1-344.8,78.264c-.8.036-.808.414-.807,1,.011,4.22.035,8.441-.024,12.66-.013.973.32,1.126,1.195,1.116C-340.257,93-336.078,93.021-331.9,93.02Zm-.092,3.949c-4.18,0-8.361.024-12.541-.02-.858-.009-1.1.218-1.095,1.087.046,4.139.056,8.279-.007,12.418-.014.969.342,1.152,1.182,1.177a56.61,56.61,0,0,1,7.452.735,64.833,64.833,0,0,1,13.669,3.825c.585.234.91.294,1.184-.447a66.948,66.948,0,0,0,3.875-17.678c.073-.856-.179-1.121-1.054-1.112C-323.548,96.995-327.769,96.972-331.991,96.969Zm-31,0c-4.135,0-8.271.006-12.406-.007-.591,0-1-.009-.936.821a67.762,67.762,0,0,0,3.936,18.144c.239.645.555.614,1.077.406a62.686,62.686,0,0,1,20.582-4.61c.963-.042,1.21-.41,1.2-1.339q-.075-6.2-.008-12.4c.008-.817-.24-1.034-1.038-1.027C-354.721,96.989-358.857,96.969-362.992,96.969ZM-345.6,61.748h-.007c0,3.809.036,7.618-.024,11.425-.016.993.279,1.248,1.234,1.181a64.453,64.453,0,0,0,20.517-4.964c.6-.25.675-.508.423-1.089a70.074,70.074,0,0,0-9.7-16.288,2.98,2.98,0,0,0-1.6-1.033,54.106,54.106,0,0,0-9.771-1.694c-.882-.079-1.1.172-1.09,1.037C-345.574,54.13-345.6,57.939-345.6,61.748Zm-.006,66.348c0,3.808.016,7.615-.013,11.423-.006.747.115,1.107.991,1.044a45.58,45.58,0,0,0,8.575-1.4,1.945,1.945,0,0,0,1.064-.764,91.333,91.333,0,0,0,10.6-17.2c.358-.765.3-1.066-.541-1.392a62.185,62.185,0,0,0-19.677-4.259c-.87-.04-1.018.224-1.011,1C-345.59,120.4-345.607,124.248-345.606,128.1Zm-3.955-.058c0-3.769-.027-7.538.02-11.306.011-.917-.217-1.181-1.169-1.13a61.858,61.858,0,0,0-18.939,4.263c-.841.323-.878.685-.525,1.438a91.358,91.358,0,0,0,10.62,17.2,1.876,1.876,0,0,0,1.054.783,51.53,51.53,0,0,0,7.861,1.265c.887.071,1.1-.234,1.1-1.082C-349.584,135.658-349.561,131.848-349.561,128.039ZM-386.654,96.97v.005c-1.8,0-3.6.048-5.4-.02-.9-.035-1.147.3-1.034,1.124.11.809.144,1.628.241,2.44a44.862,44.862,0,0,0,8.5,21.393c.445.61.746.649,1.362.253a50.211,50.211,0,0,1,6.232-3.41c.874-.4.981-.795.656-1.658a65.525,65.525,0,0,1-4.149-19.329c-.039-.666-.276-.818-.882-.808C-382.97,96.988-384.813,96.97-386.654,96.97Zm78.665,0v.007c-1.845,0-3.69.023-5.533-.013-.637-.013-.816.191-.859.828a68.325,68.325,0,0,1-4.189,19.481c-.259.693-.147,1.012.5,1.327a46.048,46.048,0,0,1,6.262,3.63c.491.341.74.259,1.077-.2a45.778,45.778,0,0,0,8.924-24.2c.058-.749-.234-.889-.9-.875C-304.464,96.993-306.227,96.969-307.989,96.969Zm-.07-3.94c1.762,0,3.525-.045,5.285.019.864.031,1.058-.292.945-1.066-.255-1.74-.4-3.5-.717-5.225a46.8,46.8,0,0,0-8.146-18.878c-.374-.522-.629-.657-1.25-.28-1.782,1.081-3.612,2.088-5.453,3.066-.6.317-.7.6-.47,1.24.492,1.383.906,2.8,1.287,4.217a63.544,63.544,0,0,1,2.279,15.62c.013.974.27,1.373,1.325,1.312C-311.342,92.96-309.7,93.03-308.06,93.03Zm-58.086,43.535c.04-.123.069-.166.058-.182a94.745,94.745,0,0,1-7.819-13.842c-.261-.589-.581-.54-1.049-.28-1.819,1.01-3.64,2.018-5.482,2.987-.709.373-.584.663-.1,1.152a48.652,48.652,0,0,0,5.206,4.657A44.11,44.11,0,0,0-366.146,136.564Zm37.863-.358a44.224,44.224,0,0,0,14.063-10.03c.41-.428.3-.623-.144-.91-1.754-1.13-3.571-2.145-5.414-3.119-.5-.262-.7-.149-.906.317A104.568,104.568,0,0,1-328.283,136.207Zm2.041-81.657a86.235,86.235,0,0,1,6.3,11.933c.189.446.313.953,1.026.532,1.51-.893,3.052-1.731,4.588-2.578.442-.244.446-.464.106-.826A42.368,42.368,0,0,0-326.241,54.549Z" transform="translate(397.049 -32.904)"/><path class="a" d="M-349.519,18.087c-.195,10.812-3.8,21.529-9.243,31.724-.615,1.153-1.151,2.35-1.767,3.5a3.661,3.661,0,0,1-3.254,2.083,3.439,3.439,0,0,1-3.206-1.947c-3.808-7.462-7.693-14.895-9.549-23.167a67.325,67.325,0,0,1-1.8-15.816c.087-5.572,4.216-10.991,9.7-13.028a13.99,13.99,0,0,1,15.148,3.756C-350.328,8.615-349.1,12.279-349.519,18.087ZM-363.8,50.936c2.524-5.106,5.129-9.841,6.872-14.973a63.725,63.725,0,0,0,3.465-20.83c-.013-4.994-2.969-9.187-7.748-10.277-5.283-1.2-10.219,1.139-12.265,5.759a13.559,13.559,0,0,0-.83,6.012A62.456,62.456,0,0,0-370.032,37.8C-368.3,42.257-366,46.443-363.8,50.936Z" transform="translate(383.573 -0.584)"/><path class="a" d="M-348.767,46.381a8.911,8.911,0,0,1-8.732-8.534,8.908,8.908,0,0,1,8.414-8.723c4.527-.07,8.805,3.929,8.86,8.281A8.918,8.918,0,0,1-348.767,46.381Zm-4.761-8.623a4.362,4.362,0,0,0,4.676,4.669,4.417,4.417,0,0,0,4.694-4.682,4.446,4.446,0,0,0-4.707-4.685A4.4,4.4,0,0,0-353.529,37.758Z" transform="translate(368.559 -21.143)"/></g></svg>