<svg xmlns="http://www.w3.org/2000/svg" width="111.798" height="111.786" viewBox="0 0 111.798 111.786"><defs><style>.a{fill:#3e729a;}</style></defs><g transform="translate(0)"><path class="a" d="M104.129,113.122H10.2a4.189,4.189,0,0,0-.618-.2c-5.213-.845-8.283-4.435-8.283-9.706q0-38.61-.006-77.219a12.95,12.95,0,0,1,.218-2.386,9.34,9.34,0,0,1,9.41-7.372,9.262,9.262,0,0,1,8.858,8.725c.086,2.7.086,2.7,2.8,2.48a.681.681,0,0,1,.109,0c.5.041.72-.244.8-.693A28.6,28.6,0,0,1,25.7,20.384c.374-.85.93-1.976.456-2.765a4.775,4.775,0,0,1-.619-2.676c0-1.2-.017-2.4.006-3.6.01-.5-.1-.794-.645-.95A1.575,1.575,0,0,1,23.713,8.75c0-1.857-.026-3.714.01-5.57a1.752,1.752,0,1,1,3.5-.008c.032.909.063,1.823.011,2.729-.046.806.237,1.09,1.054,1.075,2.439-.042,4.878-.017,7.317-.018,5.57,0,11.14-.03,16.71.015.988.008,1.28-.294,1.194-1.239a20,20,0,0,1,0-2.51A1.8,1.8,0,1,1,57.1,3.218c.035,1.82.025,3.641,0,5.461a1.626,1.626,0,0,1-1.153,1.681c-.72.2-.76.64-.754,1.224.016,1.493-.01,2.985.008,4.478.008.717-.193,1.405-.858,1.627-.87.289-1.019.728-.727,1.5a1.513,1.513,0,0,1,.089.754c-.493,2.843.964,4.868,2.741,6.808a1.783,1.783,0,0,0,1.465.7q17.147-.018,34.293,0c2.279,0,2.279-.019,2.343-2.276a9.24,9.24,0,0,1,18.069-2.4,5.129,5.129,0,0,0,.473,1.661v80.39a6.283,6.283,0,0,0-.249.7,9.149,9.149,0,0,1-7.014,7.248C105.264,112.925,104.651,112.8,104.129,113.122Zm-48.4-67.889a3.423,3.423,0,0,0-.259,1.58c-.262,5.452-.52,10.905-.745,16.359a4.986,4.986,0,1,1-9.964-.139c-.015-2.111-.035-4.224.019-6.334.021-.816-.233-1.066-1.047-1.061a5.723,5.723,0,0,1-5.048-2.732,1.611,1.611,0,0,0-1.608-.8,5.3,5.3,0,0,1-4.238-1.386,8.357,8.357,0,0,0-4.613-2.691c-2.4-.553-3.465-2.734-4-5.033a49.987,49.987,0,0,1-.993-9.863c-.069-2.185-.108-2.144-2.293-2.166-.911-.01-1.174.295-1.172,1.192q.035,27.359.02,54.718,0,8.3-.008,16.6c0,1.27-.585,1.967-1.639,2.025-1.112.062-1.811-.615-1.945-1.882-.011-.108-.01-.218-.019-.327a5.612,5.612,0,0,0-7.312-4.919,5.674,5.674,0,0,0-3.924,6.19,5.745,5.745,0,0,0,5.835,4.862q34.623.01,69.245.009,11.85,0,23.7-.008a5.66,5.66,0,0,0,2.5-10.763,5.608,5.608,0,0,0-6.883,1.582,5.749,5.749,0,0,0-1.225,3.318c-.1,1.444-.966,2.141-2.2,1.9-.953-.186-1.367-.828-1.367-2.155q-.008-30.035-.009-60.07a3.914,3.914,0,0,0-.385-2.213,1.253,1.253,0,0,1,0-1.269,4.369,4.369,0,0,0,.394-2.435q.005-2.4,0-4.806c0-1.512,0-1.526-1.566-1.527q-16.273-.008-32.547,0c-.318,0-.743-.139-.929.132-.249.364.162.662.339.95a43.89,43.89,0,0,0,6.626,8.366,3.731,3.731,0,0,1-.384,6.013,7.053,7.053,0,0,1-8.081.3C57.243,46.266,56.506,45.753,55.732,45.233Zm53.69,51.147V45.351c0-6.589.017-13.179,0-19.768A5.626,5.626,0,0,0,102.5,20c-2.745.632-4.374,2.871-4.373,5.969q0,22.771,0,45.541,0,11.85-.013,23.7c0,.905.138,1.107.989.572a8.526,8.526,0,0,1,4.133-1.234A9.764,9.764,0,0,1,109.421,96.381ZM4.906,96.319c.431-.234.65-.348.865-.471a9.071,9.071,0,0,1,9.446-.062c.884.494.99.3.985-.586-.025-4.441-.008-8.882-.009-13.323q0-28.01-.007-56.02a6.678,6.678,0,0,0-.162-1.841,5.732,5.732,0,0,0-6.038-4.17,5.7,5.7,0,0,0-5.08,5.744q-.01,31.56,0,63.119Zm43.47-44.1c0,3.568-.007,7.136,0,10.7,0,1.156.471,1.735,1.346,1.749s1.336-.537,1.4-1.706c.268-5.343.561-10.684.771-16.029.107-2.727.047-5.46.082-8.19a1.739,1.739,0,0,1,1.786-1.905,1.806,1.806,0,0,1,1.82,1.9,8.31,8.31,0,0,1-.007,1.091,1.131,1.131,0,0,0,.533,1.106c1.3.928,2.567,1.914,3.893,2.81a3.19,3.19,0,0,0,3.6.033c.515-.3.69-.58.17-1.065-3.746-3.491-6.463-7.757-9.055-12.11A18.28,18.28,0,0,0,48.55,24.1a1.837,1.837,0,0,1-.956-2.217,1.632,1.632,0,0,1,1.941-1.194c.293.025.569.1.643-.348A2.07,2.07,0,0,0,48.289,18q-7.427,0-14.853,0c-.874,0-1.747,0-2.621,0-.853.007-.986.706-1.056,1.285-.085.7.549.352.863.4a1.831,1.831,0,0,1,1.685,1.931,1.735,1.735,0,0,1-1.9,1.674,2.627,2.627,0,0,0-2.892,2.12,13,13,0,0,0-.54,2.218,49.223,49.223,0,0,0,.112,10.344,22.283,22.283,0,0,0,.749,4.618,3.055,3.055,0,0,0,1.578,2.12c.549.254.968.236.944-.593-.042-1.455-.018-2.912-.009-4.368C30.358,38.39,31,37.6,32.1,37.576c1.168-.028,1.845.761,1.85,2.183.008,2-.018,4,.01,6.007A2.713,2.713,0,0,0,36.424,48.5c.791.083,1.18-.094,1.152-1.029-.066-2.219-.027-4.441-.016-6.662.007-1.388.631-2.137,1.762-2.158,1.192-.022,1.841.738,1.844,2.177.005,2.8-.005,5.607.008,8.41a2.7,2.7,0,0,0,2.341,2.825c.917.161,1.3-.044,1.274-1.089-.067-3.129-.031-6.261-.022-9.392,0-1.224.634-1.981,1.655-2.045,1.178-.074,1.948.732,1.952,2.091C48.383,45.157,48.377,48.688,48.376,52.22ZM40.229,14.41V14.4c2.945,0,5.891.006,8.836,0,2.591-.007,2.552-.015,2.61-2.655.021-.939-.223-1.267-1.207-1.261-6.181.041-12.363.013-18.544.03-2.814.008-2.78.03-2.8,2.883-.005.842.28,1.037,1.066,1.029C33.538,14.389,36.884,14.41,40.229,14.41Z" transform="translate(-1.288 -1.336)"/><path class="a" d="M162.835,261.02a1.846,1.846,0,0,1-1.134,1.57,1.729,1.729,0,0,1-2-.436c-1.2-1.171-2.4-2.333-3.54-3.561-.562-.607-.907-.6-1.462,0-1.085,1.176-2.242,2.286-3.386,3.406-.977.957-1.977,1-2.771.161a1.838,1.838,0,0,1,.238-2.705c1.146-1.17,2.288-2.345,3.483-3.464.54-.506.495-.823-.017-1.306-1.164-1.1-2.279-2.25-3.407-3.386-.936-.943-1.034-2-.269-2.779a1.877,1.877,0,0,1,2.789.225c1.036,1.023,2.105,2.017,3.072,3.1.7.788,1.19.932,1.953.042.969-1.129,2.082-2.136,3.149-3.179a1.868,1.868,0,0,1,2.788-.165c.757.8.687,1.747-.239,2.692-1.172,1.2-2.348,2.388-3.557,3.545-.445.426-.456.707-.007,1.136,1.185,1.13,2.326,2.305,3.492,3.456A2.317,2.317,0,0,1,162.835,261.02Z" transform="translate(-107.016 -179.029)"/><path class="a" d="M257.127,195.447a1.887,1.887,0,0,1-1.828-1.814,1.818,1.818,0,0,1,1.849-1.762,1.756,1.756,0,0,1,1.74,1.731A1.8,1.8,0,0,1,257.127,195.447Z" transform="translate(-184.273 -138.594)"/><path class="a" d="M99.416,300.255a1.789,1.789,0,0,1-1.815,1.761,1.726,1.726,0,0,1-1.784-1.768,1.8,1.8,0,0,1,1.794-1.79A1.832,1.832,0,0,1,99.416,300.255Z" transform="translate(-69.385 -215.378)"/><path class="a" d="M256.6,271.631a1.825,1.825,0,0,1,1.642,1.956,1.755,1.755,0,0,1-1.929,1.64,1.844,1.844,0,0,1-1.625-1.875A1.885,1.885,0,0,1,256.6,271.631Z" transform="translate(-183.831 -196.049)"/><path class="a" d="M100,328.171a1.861,1.861,0,0,1-1.753-1.871,1.787,1.787,0,0,1,1.8-1.686,1.739,1.739,0,0,1,1.791,1.781A1.82,1.82,0,0,1,100,328.171Z" transform="translate(-71.135 -234.22)"/><path class="a" d="M224.413,341.154a1.8,1.8,0,0,1-3.609-.075,1.743,1.743,0,0,1,1.779-1.691A1.782,1.782,0,0,1,224.413,341.154Z" transform="translate(-159.423 -244.863)"/><path class="a" d="M119.895,345.312a1.8,1.8,0,0,1-1.85,1.743,1.788,1.788,0,0,1,.109-3.574A1.747,1.747,0,0,1,119.895,345.312Z" transform="translate(-84.156 -247.811)"/><path class="a" d="M285.838,149.167a1.779,1.779,0,0,1-1.784,1.8,1.761,1.761,0,0,1-1.72-1.75,1.753,1.753,0,1,1,3.5-.055Z" transform="translate(-203.748 -106.543)"/><path class="a" d="M256.559,245.061a1.776,1.776,0,0,1,1.73,1.854,1.815,1.815,0,0,1-1.86,1.741,1.856,1.856,0,0,1-1.689-1.82A1.779,1.779,0,0,1,256.559,245.061Z" transform="translate(-183.87 -176.911)"/><path class="a" d="M136.568,271.42a1.753,1.753,0,0,1-1.79-1.792,1.809,1.809,0,0,1,1.81-1.8,1.873,1.873,0,0,1,1.751,1.882A1.764,1.764,0,0,1,136.568,271.42Z" transform="translate(-97.452 -193.314)"/><path class="a" d="M111.653,276.37a1.918,1.918,0,0,1,1.852,1.769,1.771,1.771,0,0,1-1.739,1.826,1.835,1.835,0,0,1-1.865-1.724A1.922,1.922,0,0,1,111.653,276.37Z" transform="translate(-79.53 -199.465)"/><path class="a" d="M254.514,298.168a1.715,1.715,0,0,1,1.663,1.892,1.771,1.771,0,0,1-1.771,1.7,1.8,1.8,0,0,1,.108-3.591Z" transform="translate(-182.389 -215.167)"/><path class="a" d="M199.252,349.252a1.769,1.769,0,0,1-1.725,1.755,1.806,1.806,0,1,1,1.725-1.755Z" transform="translate(-141.353 -250.633)"/><path class="a" d="M267.9,168.732a1.755,1.755,0,1,1-3.509-.039,1.753,1.753,0,0,1,1.78-1.792A1.724,1.724,0,0,1,267.9,168.732Z" transform="translate(-190.821 -120.606)"/><path class="a" d="M258.3,220.239a1.769,1.769,0,1,1-3.536-.055,1.772,1.772,0,0,1,1.752-1.72A1.719,1.719,0,0,1,258.3,220.239Z" transform="translate(-183.884 -157.751)"/><path class="a" d="M308.227,136.414a1.72,1.72,0,0,1,1.634,1.919,1.768,1.768,0,1,1-3.529-.237A1.763,1.763,0,0,1,308.227,136.414Z" transform="translate(-221.035 -98.641)"/><path class="a" d="M242.789,322.055a1.693,1.693,0,0,1,1.7,1.836,1.722,1.722,0,0,1-1.868,1.686,1.763,1.763,0,0,1,.163-3.522Z" transform="translate(-173.961 -232.376)"/><path class="a" d="M145.95,349.774a1.751,1.751,0,1,1-1.772-1.747A1.652,1.652,0,0,1,145.95,349.774Z" transform="translate(-102.977 -251.086)"/><path class="a" d="M172.625,349.706a1.691,1.691,0,0,1-1.717,1.818,1.751,1.751,0,1,1,1.717-1.818Z" transform="translate(-122.193 -251.083)"/></g></svg>