<svg xmlns="http://www.w3.org/2000/svg" width="222" height="205.409" viewBox="0 0 222 205.409"><defs><style>.a{fill:#fff;}</style></defs><g transform="translate(680)"><g transform="translate(-680)"><path class="a" d="M-650.9,213.969a12.887,12.887,0,0,1-7.494,11.671,11.481,11.481,0,0,1-12.942-2.547q-38.452-38.46-76.883-76.941c-2.521-2.522-5.113-4.978-7.559-7.57a4.635,4.635,0,0,0-3.932-1.532,45.982,45.982,0,0,1-31.463-10.278c-6.268-4.969-10.3-11.57-13.9-18.573-10.783-21.013-21.692-41.962-32.535-62.944-.608-1.178-2.036-2.573.545-3.325.293-.086.436-.731.622-1.129a8.689,8.689,0,0,1,14.116-2.432c7.085,6.995,14.1,14.063,21.15,21.091q17.68,17.622,35.367,35.239c11.02,11.022,21.975,22.108,32.995,33.13,9.76,9.763,19.59,19.456,29.353,29.216,9.5,9.5,18.94,19.057,28.435,28.56q10.231,10.238,20.536,20.4A11.8,11.8,0,0,1-650.9,213.969Zm-7.432,1.058a3.29,3.29,0,0,0-1.229-3.01q-11.42-11.422-22.841-22.843-34.986-35-69.972-70-32.233-32.236-64.474-64.462-5.36-5.359-10.728-10.71c-.4-.394-.828-1.043-1.492-.528-.625.484-.2,1.072.061,1.6.13.266.269.528.406.792q16.284,31.468,32.574,62.931c7.878,15.181,22.43,22.592,39.4,20.1a3.378,3.378,0,0,1,3.182,1.1c2.646,2.713,5.354,5.365,8.033,8.045q39.8,39.8,79.605,79.606c1.008,1.008,2.057,2.267,3.622,1.431A7.49,7.49,0,0,0-658.332,215.027Z" transform="translate(838.551 -24.87)"/><path class="a" d="M-606.395,122.868a29.613,29.613,0,0,1-12.151-2.373,2.289,2.289,0,0,0-2.959.606c-1.894,1.992-3.9,3.874-5.808,5.857-.862.9-1.486.843-2.412.028-4.532-4-4.553-3.971-.258-8.266,2.207-2.207,4.5-4.338,6.591-6.648,1.345-1.485,2.411-1.6,4.162-.539,8.113,4.9,16.5,5.413,25.026,1.035a23.876,23.876,0,0,0,5.858-4.405q24.611-24.417,49.228-48.828.554-.549,1.084-1.123a1.464,1.464,0,0,0,0-2.186,1.506,1.506,0,0,0-2.348-.158c-.566.479-1.086,1.014-1.611,1.54-9.877,9.882-19.781,19.737-29.6,29.679-1.489,1.508-2.384,1.653-3.87,0-3.125-3.481-6.4-6.832-9.741-10.112-1.367-1.342-1.164-2.162.1-3.415q15.04-14.914,29.975-29.933a21.4,21.4,0,0,0,1.515-1.632,1.343,1.343,0,0,0-.246-1.975c-.572-.585-1.238-.932-1.979-.444a11.118,11.118,0,0,0-1.657,1.478c-9.989,9.98-20,19.94-29.928,29.98-1.413,1.429-2.274,1.565-3.709.041-3.156-3.354-6.449-6.583-9.789-9.756-1.337-1.27-1.324-2.082,0-3.394q15.053-14.9,29.984-29.924c.473-.473.935-.956,1.4-1.433a1.357,1.357,0,0,0,.06-2.139,1.532,1.532,0,0,0-2.345-.255c-.511.429-.981.908-1.454,1.381q-24.128,24.114-48.25,48.233c-8.7,8.708-10.42,19.251-4.841,30.145.816,1.594.721,2.619-.6,3.866-3.184,3.012-6.275,6.127-9.306,9.295-1.18,1.233-1.976,1.363-3.243.068-3.871-3.956-4.129-4.154.059-7.749,3.582-3.075,4.4-5.913,3.287-10.781a30.5,30.5,0,0,1,8.2-29.217c16.567-16.955,33.45-33.6,50.238-50.342,3.638-3.627,10.152-3.695,13.554-.3,3.507,3.5,3.38,9.94-.371,13.714-8.486,8.54-17.023,17.03-25.523,25.556-.665.667-1.852,1.2-.644,2.5.943,1.008,1.631,1.295,2.7.152,1.93-2.06,3.979-4.007,5.976-6,6.517-6.515,13.053-13.012,19.538-19.559a9.843,9.843,0,0,1,6.472-3.122c3.524-.228,6.749.636,8.637,3.912a9.829,9.829,0,0,1-.331,10.942,15.573,15.573,0,0,1-2.075,2.322q-12.363,12.388-24.738,24.764c-.689.69-1.726,1.248-.543,2.52,1.126,1.211,1.79,1.228,2.991.008,8.347-8.469,16.81-16.823,25.168-25.28a10.223,10.223,0,0,1,9.332-3.087c6.934,1.079,9.851,9.646,5.251,15.3a29.482,29.482,0,0,1-2.161,2.249q-23.821,23.63-47.647,47.255A33.179,33.179,0,0,1-606.395,122.868Z" transform="translate(752.101 -16.287)"/><path class="a" d="M-796,315.681a10.824,10.824,0,0,1-9.558-6.754c-1.738-4-.54-7.718,2.008-11.035a29.171,29.171,0,0,1,2.647-2.707q28.925-28.928,57.852-57.853c2.262-2.262,2.272-2.268,4.462-.07,3.646,3.659,3.777,2.781.027,6.534q-29.309,29.332-58.655,58.625c-1.189,1.185-1.763,2.391-1.076,3.961.556,1.271,1.7,1.537,2.976,1.506,1.206-.029,1.788-.974,2.506-1.691q28.7-28.679,57.392-57.368c3.733-3.727,2.625-3.546,6.346.013,2.3,2.2,2.279,2.24.018,4.5q-29.083,29.085-58.151,58.184A13.826,13.826,0,0,1-796,315.681Z" transform="translate(824.362 -113.004)"/><path class="a" d="M-693.7,37.846a96.519,96.519,0,0,1,38.5,7.973c1.809.781,2.175,1.483,1.261,3.279-2.348,4.613-2.247,4.592-7.1,2.66a89.031,89.031,0,0,0-25.876-6.1c-22.707-1.852-42.964,4.494-61.078,18.043-1.867,1.4-2.708,1.135-4.012-.629-2.938-3.975-3.073-3.952.966-6.833A96.83,96.83,0,0,1-702.6,38.25C-699.629,37.985-696.677,37.862-693.7,37.846Z" transform="translate(801.332 -25.793)"/><path class="a" d="M-687.978,366.938c-18.269-.292-35.309-4.88-50.942-14.486-1.535-.943-1.625-1.694-.711-3.133,2.816-4.433,2.778-4.48,7.324-1.909a88.945,88.945,0,0,0,41.495,11.858,88,88,0,0,0,41.75-8.983c.668-.323,1.351-.615,2.014-.948a1.328,1.328,0,0,1,2.029.629c.068.132.149.257.213.391,2.938,6.175,3.812,4.633-2.434,7.594a91.29,91.29,0,0,1-34.077,8.625C-683.536,366.7-685.747,366.994-687.978,366.938Z" transform="translate(795.191 -161.535)"/><path class="a" d="M-819.8,182.17c.223-13.692,2.381-25.6,6.911-37.049.564-1.426,1.2-1.767,2.657-1.171,5.256,2.141,5.153,2.056,3.33,7.35-8.35,24.252-6.9,47.858,4.831,70.755A76.346,76.346,0,0,0-795.3,233.04c1.031,1.378,1.146,2.275-.421,3.438-4.335,3.221-4.351,3.339-7.381-1.154a94.645,94.645,0,0,1-15.922-43.688C-819.405,188.022-819.623,184.393-819.8,182.17Z" transform="translate(830.283 -72.457)"/><path class="a" d="M-494.9,185.462c-.352,22.523-6.752,42.37-20.046,59.879-1.683,2.218-1.678,2.222-3.922.461-3.771-2.957-3.744-2.938-.869-6.874a88.35,88.35,0,0,0,16.663-42.179,86.589,86.589,0,0,0-3.6-36.915c-.647-2.035-.039-2.7,1.811-3.289,4.815-1.525,4.848-1.618,6.228,3.227a83.643,83.643,0,0,1,3.527,22.563C-495.107,183.592-494.945,184.849-494.9,185.462Z" transform="translate(698.883 -77.725)"/><path class="a" d="M-680.8,80.879a75.9,75.9,0,0,1,17.63,2.209c1.658.4,1.959,1.088,1.563,2.658-1.313,5.213-1.242,5.1-6.329,4.174-18.072-3.3-34.85-.21-49.97,10.513-1.629,1.155-2.5,1.143-3.723-.544-3.141-4.338-3.256-4.33,1.26-7.221A73.469,73.469,0,0,1-680.8,80.879Z" transform="translate(787.988 -44.769)"/><path class="a" d="M-673.194,328.388a72.5,72.5,0,0,1-33.629-7.656c-1.786-.871-1.978-1.7-1.036-3.4,2.387-4.309,2.337-4.413,6.83-2.375a64.572,64.572,0,0,0,29.175,5.957,61.875,61.875,0,0,0,21.04-4.3c1.847-.738,2.762-.468,3.507,1.488,1.885,4.945,1.973,4.914-3.042,6.577A66.933,66.933,0,0,1-673.194,328.388Z" transform="translate(781.168 -147.419)"/><path class="a" d="M-534.1,203.279a72.193,72.193,0,0,1-14.227,43.028c-1.255,1.732-2.138,1.885-3.8.511-4.727-3.906-4.05-2.65-1.024-7.075a62.913,62.913,0,0,0,11.271-32.166c.245-3.951-.046-7.861-.184-11.784-.047-1.347.246-1.989,1.616-1.976a2.63,2.63,0,0,0,.444-.041c5.752-.911,5.76-.912,5.9,5.044C-534.066,200.306-534.1,201.793-534.1,203.279Z" transform="translate(713.759 -94.357)"/><path class="a" d="M-776.328,209.959c.157-1.719-.3-3.4-.026-5.127.173-1.086.6-1.61,1.669-1.649.223-.008.445-.029.667-.042,5.149-.311,5.071-.309,5.223,4.826.36,12.189,3.408,23.589,10.071,33.929,2.209,3.428,2.078,2.8-.88,4.93-3.485,2.51-3.532,2.533-5.8-1.108A71.588,71.588,0,0,1-776.328,209.959Z" transform="translate(811.165 -98.631)"/></g></g></svg>